<?xml version="1.0" encoding="utf-8" standalone="no"?>
<!DOCTYPE svg PUBLIC "-//W3C//DTD SVG 1.1//EN"
  "http://www.w3.org/Graphics/SVG/1.1/DTD/svg11.dtd">
<!-- Created with matplotlib (https://matplotlib.org/) -->
<svg height="864pt" version="1.1" viewBox="0 0 1440 864" width="1440pt" xmlns="http://www.w3.org/2000/svg" xmlns:xlink="http://www.w3.org/1999/xlink">
 <metadata>
  <rdf:RDF xmlns:cc="http://creativecommons.org/ns#" xmlns:dc="http://purl.org/dc/elements/1.1/" xmlns:rdf="http://www.w3.org/1999/02/22-rdf-syntax-ns#">
   <cc:Work>
    <dc:type rdf:resource="http://purl.org/dc/dcmitype/StillImage"/>
    <dc:date>2024-05-18T20:17:48.691854</dc:date>
    <dc:format>image/svg+xml</dc:format>
    <dc:creator>
     <cc:Agent>
      <dc:title>Matplotlib v3.3.4, https://matplotlib.org/</dc:title>
     </cc:Agent>
    </dc:creator>
   </cc:Work>
  </rdf:RDF>
 </metadata>
 <defs>
  <style type="text/css">*{stroke-linecap:butt;stroke-linejoin:round;}</style>
 </defs>
 <g id="figure_1">
  <g id="patch_1">
   <path d="M 0 864 
L 1440 864 
L 1440 0 
L 0 0 
z
" style="fill:#ffffff;"/>
  </g>
  <g id="axes_1">
   <g id="patch_2">
    <path d="M 180 768.96 
L 1296 768.96 
L 1296 103.68 
L 180 103.68 
z
" style="fill:#ffffff;"/>
   </g>
   <g id="matplotlib.axis_1">
    <g id="xtick_1">
     <g id="line2d_1">
      <defs>
       <path d="M 0 0 
L 0 3.5 
" id="md598bb34e7" style="stroke:#000000;stroke-width:0.8;"/>
      </defs>
      <g>
       <use style="stroke:#000000;stroke-width:0.8;" x="230.727273" xlink:href="#md598bb34e7" y="768.96"/>
      </g>
     </g>
     <g id="text_1">
      <!-- 0.0 -->
      <g transform="translate(214.824148 791.156875)scale(0.2 -0.2)">
       <defs>
        <path d="M 31.78125 66.40625 
Q 24.171875 66.40625 20.328125 58.90625 
Q 16.5 51.421875 16.5 36.375 
Q 16.5 21.390625 20.328125 13.890625 
Q 24.171875 6.390625 31.78125 6.390625 
Q 39.453125 6.390625 43.28125 13.890625 
Q 47.125 21.390625 47.125 36.375 
Q 47.125 51.421875 43.28125 58.90625 
Q 39.453125 66.40625 31.78125 66.40625 
z
M 31.78125 74.21875 
Q 44.046875 74.21875 50.515625 64.515625 
Q 56.984375 54.828125 56.984375 36.375 
Q 56.984375 17.96875 50.515625 8.265625 
Q 44.046875 -1.421875 31.78125 -1.421875 
Q 19.53125 -1.421875 13.0625 8.265625 
Q 6.59375 17.96875 6.59375 36.375 
Q 6.59375 54.828125 13.0625 64.515625 
Q 19.53125 74.21875 31.78125 74.21875 
z
" id="DejaVuSans-48"/>
        <path d="M 10.6875 12.40625 
L 21 12.40625 
L 21 0 
L 10.6875 0 
z
" id="DejaVuSans-46"/>
       </defs>
       <use xlink:href="#DejaVuSans-48"/>
       <use x="63.623047" xlink:href="#DejaVuSans-46"/>
       <use x="95.410156" xlink:href="#DejaVuSans-48"/>
      </g>
     </g>
    </g>
    <g id="xtick_2">
     <g id="line2d_2">
      <g>
       <use style="stroke:#000000;stroke-width:0.8;" x="433.636364" xlink:href="#md598bb34e7" y="768.96"/>
      </g>
     </g>
     <g id="text_2">
      <!-- 0.2 -->
      <g transform="translate(417.733239 791.156875)scale(0.2 -0.2)">
       <defs>
        <path d="M 19.1875 8.296875 
L 53.609375 8.296875 
L 53.609375 0 
L 7.328125 0 
L 7.328125 8.296875 
Q 12.9375 14.109375 22.625 23.890625 
Q 32.328125 33.6875 34.8125 36.53125 
Q 39.546875 41.84375 41.421875 45.53125 
Q 43.3125 49.21875 43.3125 52.78125 
Q 43.3125 58.59375 39.234375 62.25 
Q 35.15625 65.921875 28.609375 65.921875 
Q 23.96875 65.921875 18.8125 64.3125 
Q 13.671875 62.703125 7.8125 59.421875 
L 7.8125 69.390625 
Q 13.765625 71.78125 18.9375 73 
Q 24.125 74.21875 28.421875 74.21875 
Q 39.75 74.21875 46.484375 68.546875 
Q 53.21875 62.890625 53.21875 53.421875 
Q 53.21875 48.921875 51.53125 44.890625 
Q 49.859375 40.875 45.40625 35.40625 
Q 44.1875 33.984375 37.640625 27.21875 
Q 31.109375 20.453125 19.1875 8.296875 
z
" id="DejaVuSans-50"/>
       </defs>
       <use xlink:href="#DejaVuSans-48"/>
       <use x="63.623047" xlink:href="#DejaVuSans-46"/>
       <use x="95.410156" xlink:href="#DejaVuSans-50"/>
      </g>
     </g>
    </g>
    <g id="xtick_3">
     <g id="line2d_3">
      <g>
       <use style="stroke:#000000;stroke-width:0.8;" x="636.545455" xlink:href="#md598bb34e7" y="768.96"/>
      </g>
     </g>
     <g id="text_3">
      <!-- 0.4 -->
      <g transform="translate(620.64233 791.156875)scale(0.2 -0.2)">
       <defs>
        <path d="M 37.796875 64.3125 
L 12.890625 25.390625 
L 37.796875 25.390625 
z
M 35.203125 72.90625 
L 47.609375 72.90625 
L 47.609375 25.390625 
L 58.015625 25.390625 
L 58.015625 17.1875 
L 47.609375 17.1875 
L 47.609375 0 
L 37.796875 0 
L 37.796875 17.1875 
L 4.890625 17.1875 
L 4.890625 26.703125 
z
" id="DejaVuSans-52"/>
       </defs>
       <use xlink:href="#DejaVuSans-48"/>
       <use x="63.623047" xlink:href="#DejaVuSans-46"/>
       <use x="95.410156" xlink:href="#DejaVuSans-52"/>
      </g>
     </g>
    </g>
    <g id="xtick_4">
     <g id="line2d_4">
      <g>
       <use style="stroke:#000000;stroke-width:0.8;" x="839.454545" xlink:href="#md598bb34e7" y="768.96"/>
      </g>
     </g>
     <g id="text_4">
      <!-- 0.6 -->
      <g transform="translate(823.55142 791.156875)scale(0.2 -0.2)">
       <defs>
        <path d="M 33.015625 40.375 
Q 26.375 40.375 22.484375 35.828125 
Q 18.609375 31.296875 18.609375 23.390625 
Q 18.609375 15.53125 22.484375 10.953125 
Q 26.375 6.390625 33.015625 6.390625 
Q 39.65625 6.390625 43.53125 10.953125 
Q 47.40625 15.53125 47.40625 23.390625 
Q 47.40625 31.296875 43.53125 35.828125 
Q 39.65625 40.375 33.015625 40.375 
z
M 52.59375 71.296875 
L 52.59375 62.3125 
Q 48.875 64.0625 45.09375 64.984375 
Q 41.3125 65.921875 37.59375 65.921875 
Q 27.828125 65.921875 22.671875 59.328125 
Q 17.53125 52.734375 16.796875 39.40625 
Q 19.671875 43.65625 24.015625 45.921875 
Q 28.375 48.1875 33.59375 48.1875 
Q 44.578125 48.1875 50.953125 41.515625 
Q 57.328125 34.859375 57.328125 23.390625 
Q 57.328125 12.15625 50.6875 5.359375 
Q 44.046875 -1.421875 33.015625 -1.421875 
Q 20.359375 -1.421875 13.671875 8.265625 
Q 6.984375 17.96875 6.984375 36.375 
Q 6.984375 53.65625 15.1875 63.9375 
Q 23.390625 74.21875 37.203125 74.21875 
Q 40.921875 74.21875 44.703125 73.484375 
Q 48.484375 72.75 52.59375 71.296875 
z
" id="DejaVuSans-54"/>
       </defs>
       <use xlink:href="#DejaVuSans-48"/>
       <use x="63.623047" xlink:href="#DejaVuSans-46"/>
       <use x="95.410156" xlink:href="#DejaVuSans-54"/>
      </g>
     </g>
    </g>
    <g id="xtick_5">
     <g id="line2d_5">
      <g>
       <use style="stroke:#000000;stroke-width:0.8;" x="1042.363636" xlink:href="#md598bb34e7" y="768.96"/>
      </g>
     </g>
     <g id="text_5">
      <!-- 0.8 -->
      <g transform="translate(1026.460511 791.156875)scale(0.2 -0.2)">
       <defs>
        <path d="M 31.78125 34.625 
Q 24.75 34.625 20.71875 30.859375 
Q 16.703125 27.09375 16.703125 20.515625 
Q 16.703125 13.921875 20.71875 10.15625 
Q 24.75 6.390625 31.78125 6.390625 
Q 38.8125 6.390625 42.859375 10.171875 
Q 46.921875 13.96875 46.921875 20.515625 
Q 46.921875 27.09375 42.890625 30.859375 
Q 38.875 34.625 31.78125 34.625 
z
M 21.921875 38.8125 
Q 15.578125 40.375 12.03125 44.71875 
Q 8.5 49.078125 8.5 55.328125 
Q 8.5 64.0625 14.71875 69.140625 
Q 20.953125 74.21875 31.78125 74.21875 
Q 42.671875 74.21875 48.875 69.140625 
Q 55.078125 64.0625 55.078125 55.328125 
Q 55.078125 49.078125 51.53125 44.71875 
Q 48 40.375 41.703125 38.8125 
Q 48.828125 37.15625 52.796875 32.3125 
Q 56.78125 27.484375 56.78125 20.515625 
Q 56.78125 9.90625 50.3125 4.234375 
Q 43.84375 -1.421875 31.78125 -1.421875 
Q 19.734375 -1.421875 13.25 4.234375 
Q 6.78125 9.90625 6.78125 20.515625 
Q 6.78125 27.484375 10.78125 32.3125 
Q 14.796875 37.15625 21.921875 38.8125 
z
M 18.3125 54.390625 
Q 18.3125 48.734375 21.84375 45.5625 
Q 25.390625 42.390625 31.78125 42.390625 
Q 38.140625 42.390625 41.71875 45.5625 
Q 45.3125 48.734375 45.3125 54.390625 
Q 45.3125 60.0625 41.71875 63.234375 
Q 38.140625 66.40625 31.78125 66.40625 
Q 25.390625 66.40625 21.84375 63.234375 
Q 18.3125 60.0625 18.3125 54.390625 
z
" id="DejaVuSans-56"/>
       </defs>
       <use xlink:href="#DejaVuSans-48"/>
       <use x="63.623047" xlink:href="#DejaVuSans-46"/>
       <use x="95.410156" xlink:href="#DejaVuSans-56"/>
      </g>
     </g>
    </g>
    <g id="xtick_6">
     <g id="line2d_6">
      <g>
       <use style="stroke:#000000;stroke-width:0.8;" x="1245.272727" xlink:href="#md598bb34e7" y="768.96"/>
      </g>
     </g>
     <g id="text_6">
      <!-- 1.0 -->
      <g transform="translate(1229.369602 791.156875)scale(0.2 -0.2)">
       <defs>
        <path d="M 12.40625 8.296875 
L 28.515625 8.296875 
L 28.515625 63.921875 
L 10.984375 60.40625 
L 10.984375 69.390625 
L 28.421875 72.90625 
L 38.28125 72.90625 
L 38.28125 8.296875 
L 54.390625 8.296875 
L 54.390625 0 
L 12.40625 0 
z
" id="DejaVuSans-49"/>
       </defs>
       <use xlink:href="#DejaVuSans-49"/>
       <use x="63.623047" xlink:href="#DejaVuSans-46"/>
       <use x="95.410156" xlink:href="#DejaVuSans-48"/>
      </g>
     </g>
    </g>
    <g id="text_7">
     <!-- Recall -->
     <g transform="translate(700.707031 818.312344)scale(0.25 -0.25)">
      <defs>
       <path d="M 44.390625 34.1875 
Q 47.5625 33.109375 50.5625 29.59375 
Q 53.5625 26.078125 56.59375 19.921875 
L 66.609375 0 
L 56 0 
L 46.6875 18.703125 
Q 43.0625 26.03125 39.671875 28.421875 
Q 36.28125 30.8125 30.421875 30.8125 
L 19.671875 30.8125 
L 19.671875 0 
L 9.8125 0 
L 9.8125 72.90625 
L 32.078125 72.90625 
Q 44.578125 72.90625 50.734375 67.671875 
Q 56.890625 62.453125 56.890625 51.90625 
Q 56.890625 45.015625 53.6875 40.46875 
Q 50.484375 35.9375 44.390625 34.1875 
z
M 19.671875 64.796875 
L 19.671875 38.921875 
L 32.078125 38.921875 
Q 39.203125 38.921875 42.84375 42.21875 
Q 46.484375 45.515625 46.484375 51.90625 
Q 46.484375 58.296875 42.84375 61.546875 
Q 39.203125 64.796875 32.078125 64.796875 
z
" id="DejaVuSans-82"/>
       <path d="M 56.203125 29.59375 
L 56.203125 25.203125 
L 14.890625 25.203125 
Q 15.484375 15.921875 20.484375 11.0625 
Q 25.484375 6.203125 34.421875 6.203125 
Q 39.59375 6.203125 44.453125 7.46875 
Q 49.3125 8.734375 54.109375 11.28125 
L 54.109375 2.78125 
Q 49.265625 0.734375 44.1875 -0.34375 
Q 39.109375 -1.421875 33.890625 -1.421875 
Q 20.796875 -1.421875 13.15625 6.1875 
Q 5.515625 13.8125 5.515625 26.8125 
Q 5.515625 40.234375 12.765625 48.109375 
Q 20.015625 56 32.328125 56 
Q 43.359375 56 49.78125 48.890625 
Q 56.203125 41.796875 56.203125 29.59375 
z
M 47.21875 32.234375 
Q 47.125 39.59375 43.09375 43.984375 
Q 39.0625 48.390625 32.421875 48.390625 
Q 24.90625 48.390625 20.390625 44.140625 
Q 15.875 39.890625 15.1875 32.171875 
z
" id="DejaVuSans-101"/>
       <path d="M 48.78125 52.59375 
L 48.78125 44.1875 
Q 44.96875 46.296875 41.140625 47.34375 
Q 37.3125 48.390625 33.40625 48.390625 
Q 24.65625 48.390625 19.8125 42.84375 
Q 14.984375 37.3125 14.984375 27.296875 
Q 14.984375 17.28125 19.8125 11.734375 
Q 24.65625 6.203125 33.40625 6.203125 
Q 37.3125 6.203125 41.140625 7.25 
Q 44.96875 8.296875 48.78125 10.40625 
L 48.78125 2.09375 
Q 45.015625 0.34375 40.984375 -0.53125 
Q 36.96875 -1.421875 32.421875 -1.421875 
Q 20.0625 -1.421875 12.78125 6.34375 
Q 5.515625 14.109375 5.515625 27.296875 
Q 5.515625 40.671875 12.859375 48.328125 
Q 20.21875 56 33.015625 56 
Q 37.15625 56 41.109375 55.140625 
Q 45.0625 54.296875 48.78125 52.59375 
z
" id="DejaVuSans-99"/>
       <path d="M 34.28125 27.484375 
Q 23.390625 27.484375 19.1875 25 
Q 14.984375 22.515625 14.984375 16.5 
Q 14.984375 11.71875 18.140625 8.90625 
Q 21.296875 6.109375 26.703125 6.109375 
Q 34.1875 6.109375 38.703125 11.40625 
Q 43.21875 16.703125 43.21875 25.484375 
L 43.21875 27.484375 
z
M 52.203125 31.203125 
L 52.203125 0 
L 43.21875 0 
L 43.21875 8.296875 
Q 40.140625 3.328125 35.546875 0.953125 
Q 30.953125 -1.421875 24.3125 -1.421875 
Q 15.921875 -1.421875 10.953125 3.296875 
Q 6 8.015625 6 15.921875 
Q 6 25.140625 12.171875 29.828125 
Q 18.359375 34.515625 30.609375 34.515625 
L 43.21875 34.515625 
L 43.21875 35.40625 
Q 43.21875 41.609375 39.140625 45 
Q 35.0625 48.390625 27.6875 48.390625 
Q 23 48.390625 18.546875 47.265625 
Q 14.109375 46.140625 10.015625 43.890625 
L 10.015625 52.203125 
Q 14.9375 54.109375 19.578125 55.046875 
Q 24.21875 56 28.609375 56 
Q 40.484375 56 46.34375 49.84375 
Q 52.203125 43.703125 52.203125 31.203125 
z
" id="DejaVuSans-97"/>
       <path d="M 9.421875 75.984375 
L 18.40625 75.984375 
L 18.40625 0 
L 9.421875 0 
z
" id="DejaVuSans-108"/>
      </defs>
      <use xlink:href="#DejaVuSans-82"/>
      <use x="64.982422" xlink:href="#DejaVuSans-101"/>
      <use x="126.505859" xlink:href="#DejaVuSans-99"/>
      <use x="181.486328" xlink:href="#DejaVuSans-97"/>
      <use x="242.765625" xlink:href="#DejaVuSans-108"/>
      <use x="270.548828" xlink:href="#DejaVuSans-108"/>
     </g>
    </g>
   </g>
   <g id="matplotlib.axis_2">
    <g id="ytick_1">
     <g id="line2d_7">
      <defs>
       <path d="M 0 0 
L -3.5 0 
" id="m30603bbaaa" style="stroke:#000000;stroke-width:0.8;"/>
      </defs>
      <g>
       <use style="stroke:#000000;stroke-width:0.8;" x="180" xlink:href="#m30603bbaaa" y="738.72"/>
      </g>
     </g>
     <g id="text_8">
      <!-- 0.0 -->
      <g transform="translate(141.19375 746.318437)scale(0.2 -0.2)">
       <use xlink:href="#DejaVuSans-48"/>
       <use x="63.623047" xlink:href="#DejaVuSans-46"/>
       <use x="95.410156" xlink:href="#DejaVuSans-48"/>
      </g>
     </g>
    </g>
    <g id="ytick_2">
     <g id="line2d_8">
      <g>
       <use style="stroke:#000000;stroke-width:0.8;" x="180" xlink:href="#m30603bbaaa" y="617.76"/>
      </g>
     </g>
     <g id="text_9">
      <!-- 0.2 -->
      <g transform="translate(141.19375 625.358438)scale(0.2 -0.2)">
       <use xlink:href="#DejaVuSans-48"/>
       <use x="63.623047" xlink:href="#DejaVuSans-46"/>
       <use x="95.410156" xlink:href="#DejaVuSans-50"/>
      </g>
     </g>
    </g>
    <g id="ytick_3">
     <g id="line2d_9">
      <g>
       <use style="stroke:#000000;stroke-width:0.8;" x="180" xlink:href="#m30603bbaaa" y="496.8"/>
      </g>
     </g>
     <g id="text_10">
      <!-- 0.4 -->
      <g transform="translate(141.19375 504.398437)scale(0.2 -0.2)">
       <use xlink:href="#DejaVuSans-48"/>
       <use x="63.623047" xlink:href="#DejaVuSans-46"/>
       <use x="95.410156" xlink:href="#DejaVuSans-52"/>
      </g>
     </g>
    </g>
    <g id="ytick_4">
     <g id="line2d_10">
      <g>
       <use style="stroke:#000000;stroke-width:0.8;" x="180" xlink:href="#m30603bbaaa" y="375.84"/>
      </g>
     </g>
     <g id="text_11">
      <!-- 0.6 -->
      <g transform="translate(141.19375 383.438437)scale(0.2 -0.2)">
       <use xlink:href="#DejaVuSans-48"/>
       <use x="63.623047" xlink:href="#DejaVuSans-46"/>
       <use x="95.410156" xlink:href="#DejaVuSans-54"/>
      </g>
     </g>
    </g>
    <g id="ytick_5">
     <g id="line2d_11">
      <g>
       <use style="stroke:#000000;stroke-width:0.8;" x="180" xlink:href="#m30603bbaaa" y="254.88"/>
      </g>
     </g>
     <g id="text_12">
      <!-- 0.8 -->
      <g transform="translate(141.19375 262.478437)scale(0.2 -0.2)">
       <use xlink:href="#DejaVuSans-48"/>
       <use x="63.623047" xlink:href="#DejaVuSans-46"/>
       <use x="95.410156" xlink:href="#DejaVuSans-56"/>
      </g>
     </g>
    </g>
    <g id="ytick_6">
     <g id="line2d_12">
      <g>
       <use style="stroke:#000000;stroke-width:0.8;" x="180" xlink:href="#m30603bbaaa" y="133.92"/>
      </g>
     </g>
     <g id="text_13">
      <!-- 1.0 -->
      <g transform="translate(141.19375 141.518437)scale(0.2 -0.2)">
       <use xlink:href="#DejaVuSans-49"/>
       <use x="63.623047" xlink:href="#DejaVuSans-46"/>
       <use x="95.410156" xlink:href="#DejaVuSans-48"/>
      </g>
     </g>
    </g>
    <g id="text_14">
     <!-- Precision -->
     <g transform="translate(131.994531 492.087578)rotate(-90)scale(0.25 -0.25)">
      <defs>
       <path d="M 19.671875 64.796875 
L 19.671875 37.40625 
L 32.078125 37.40625 
Q 38.96875 37.40625 42.71875 40.96875 
Q 46.484375 44.53125 46.484375 51.125 
Q 46.484375 57.671875 42.71875 61.234375 
Q 38.96875 64.796875 32.078125 64.796875 
z
M 9.8125 72.90625 
L 32.078125 72.90625 
Q 44.34375 72.90625 50.609375 67.359375 
Q 56.890625 61.8125 56.890625 51.125 
Q 56.890625 40.328125 50.609375 34.8125 
Q 44.34375 29.296875 32.078125 29.296875 
L 19.671875 29.296875 
L 19.671875 0 
L 9.8125 0 
z
" id="DejaVuSans-80"/>
       <path d="M 41.109375 46.296875 
Q 39.59375 47.171875 37.8125 47.578125 
Q 36.03125 48 33.890625 48 
Q 26.265625 48 22.1875 43.046875 
Q 18.109375 38.09375 18.109375 28.8125 
L 18.109375 0 
L 9.078125 0 
L 9.078125 54.6875 
L 18.109375 54.6875 
L 18.109375 46.1875 
Q 20.953125 51.171875 25.484375 53.578125 
Q 30.03125 56 36.53125 56 
Q 37.453125 56 38.578125 55.875 
Q 39.703125 55.765625 41.0625 55.515625 
z
" id="DejaVuSans-114"/>
       <path d="M 9.421875 54.6875 
L 18.40625 54.6875 
L 18.40625 0 
L 9.421875 0 
z
M 9.421875 75.984375 
L 18.40625 75.984375 
L 18.40625 64.59375 
L 9.421875 64.59375 
z
" id="DejaVuSans-105"/>
       <path d="M 44.28125 53.078125 
L 44.28125 44.578125 
Q 40.484375 46.53125 36.375 47.5 
Q 32.28125 48.484375 27.875 48.484375 
Q 21.1875 48.484375 17.84375 46.4375 
Q 14.5 44.390625 14.5 40.28125 
Q 14.5 37.15625 16.890625 35.375 
Q 19.28125 33.59375 26.515625 31.984375 
L 29.59375 31.296875 
Q 39.15625 29.25 43.1875 25.515625 
Q 47.21875 21.78125 47.21875 15.09375 
Q 47.21875 7.46875 41.1875 3.015625 
Q 35.15625 -1.421875 24.609375 -1.421875 
Q 20.21875 -1.421875 15.453125 -0.5625 
Q 10.6875 0.296875 5.421875 2 
L 5.421875 11.28125 
Q 10.40625 8.6875 15.234375 7.390625 
Q 20.0625 6.109375 24.8125 6.109375 
Q 31.15625 6.109375 34.5625 8.28125 
Q 37.984375 10.453125 37.984375 14.40625 
Q 37.984375 18.0625 35.515625 20.015625 
Q 33.0625 21.96875 24.703125 23.78125 
L 21.578125 24.515625 
Q 13.234375 26.265625 9.515625 29.90625 
Q 5.8125 33.546875 5.8125 39.890625 
Q 5.8125 47.609375 11.28125 51.796875 
Q 16.75 56 26.8125 56 
Q 31.78125 56 36.171875 55.265625 
Q 40.578125 54.546875 44.28125 53.078125 
z
" id="DejaVuSans-115"/>
       <path d="M 30.609375 48.390625 
Q 23.390625 48.390625 19.1875 42.75 
Q 14.984375 37.109375 14.984375 27.296875 
Q 14.984375 17.484375 19.15625 11.84375 
Q 23.34375 6.203125 30.609375 6.203125 
Q 37.796875 6.203125 41.984375 11.859375 
Q 46.1875 17.53125 46.1875 27.296875 
Q 46.1875 37.015625 41.984375 42.703125 
Q 37.796875 48.390625 30.609375 48.390625 
z
M 30.609375 56 
Q 42.328125 56 49.015625 48.375 
Q 55.71875 40.765625 55.71875 27.296875 
Q 55.71875 13.875 49.015625 6.21875 
Q 42.328125 -1.421875 30.609375 -1.421875 
Q 18.84375 -1.421875 12.171875 6.21875 
Q 5.515625 13.875 5.515625 27.296875 
Q 5.515625 40.765625 12.171875 48.375 
Q 18.84375 56 30.609375 56 
z
" id="DejaVuSans-111"/>
       <path d="M 54.890625 33.015625 
L 54.890625 0 
L 45.90625 0 
L 45.90625 32.71875 
Q 45.90625 40.484375 42.875 44.328125 
Q 39.84375 48.1875 33.796875 48.1875 
Q 26.515625 48.1875 22.3125 43.546875 
Q 18.109375 38.921875 18.109375 30.90625 
L 18.109375 0 
L 9.078125 0 
L 9.078125 54.6875 
L 18.109375 54.6875 
L 18.109375 46.1875 
Q 21.34375 51.125 25.703125 53.5625 
Q 30.078125 56 35.796875 56 
Q 45.21875 56 50.046875 50.171875 
Q 54.890625 44.34375 54.890625 33.015625 
z
" id="DejaVuSans-110"/>
      </defs>
      <use xlink:href="#DejaVuSans-80"/>
      <use x="58.552734" xlink:href="#DejaVuSans-114"/>
      <use x="97.416016" xlink:href="#DejaVuSans-101"/>
      <use x="158.939453" xlink:href="#DejaVuSans-99"/>
      <use x="213.919922" xlink:href="#DejaVuSans-105"/>
      <use x="241.703125" xlink:href="#DejaVuSans-115"/>
      <use x="293.802734" xlink:href="#DejaVuSans-105"/>
      <use x="321.585938" xlink:href="#DejaVuSans-111"/>
      <use x="382.767578" xlink:href="#DejaVuSans-110"/>
     </g>
    </g>
   </g>
   <g id="line2d_13">
    <path clip-path="url(#pbed0a0ae14)" d="M 1245.272727 383.728696 
L 1239.010101 384.637091 
L 1239.010101 346.087742 
L 1232.747475 346.946721 
L 1232.747475 335.52 
L 1226.484848 336.363515 
L 1226.484848 316.951579 
L 1220.222222 317.757885 
L 1220.222222 310.206996 
L 1213.959596 311.001081 
L 1213.959596 307.112727 
L 1207.69697 307.903562 
L 1207.69697 305.927339 
L 1201.434343 306.72 
L 1201.434343 290.184115 
L 1195.171717 290.935385 
L 1195.171717 279.906207 
L 1188.909091 280.628911 
L 1188.909091 273.723015 
L 1176.383838 275.142335 
L 1176.383838 250.352086 
L 1170.121212 250.978065 
L 1170.121212 248.341622 
L 1163.858586 248.963478 
L 1163.858586 238.08 
L 1151.333333 239.250337 
L 1151.333333 233.574545 
L 1145.070707 234.144 
L 1145.070707 231.244138 
L 1126.282828 232.951579 
L 1126.282828 229.976471 
L 1120.020202 230.544852 
L 1120.020202 221.360964 
L 1088.707071 224.076522 
L 1088.707071 220.86 
L 1076.181818 221.960506 
L 1076.181818 218.669045 
L 1069.919192 219.212308 
L 1069.919192 215.860645 
L 1063.656566 216.392727 
L 1063.656566 212.978824 
L 1057.393939 213.498947 
L 1057.393939 206.496 
L 1044.868687 207.476757 
L 1044.868687 192.72 
L 1026.080808 193.971064 
L 1026.080808 190.08 
L 1019.818182 190.484029 
L 1019.818182 186.511304 
L 1001.030303 187.68 
L 1001.030303 183.567761 
L 994.767677 183.941053 
L 994.767677 179.738182 
L 969.717172 181.17 
L 969.717172 176.779843 
L 963.454545 177.12 
L 963.454545 172.6272 
L 957.191919 172.939355 
L 957.191919 168.339512 
L 944.666667 168.90843 
L 944.666667 164.16 
L 932.141414 164.672542 
L 932.141414 159.766154 
L 888.30303 161.410909 
L 844.464646 163.279223 
L 806.888889 165.095258 
L 775.575758 166.789565 
L 775.575758 160.504615 
L 738 162.381176 
L 706.686869 164.16 
L 694.161616 164.935385 
L 694.161616 157.483636 
L 662.848485 159.12 
L 631.535354 161.000597 
L 606.484848 162.72 
L 587.69697 164.16 
L 587.69697 154.421695 
L 562.646465 155.912727 
L 537.59596 157.637647 
L 518.808081 159.12 
L 500.020202 160.8 
L 481.232323 162.72 
L 481.232323 148.67122 
L 462.444444 149.835789 
L 443.656566 151.2 
L 443.656566 133.92 
L 230.727273 133.92 
L 230.727273 133.92 
" style="fill:none;stroke:#1f77b4;stroke-linecap:square;stroke-opacity:0.4;stroke-width:4;"/>
   </g>
   <g id="line2d_14">
    <path clip-path="url(#pbed0a0ae14)" d="M 1245.272727 342.049555 
L 1239.010101 342.89561 
L 1239.010101 319.009655 
L 1232.747475 319.810909 
L 1232.747475 314.298947 
L 1220.222222 315.895221 
L 1220.222222 312.12 
L 1213.959596 312.919103 
L 1213.959596 305.141918 
L 1207.69697 305.927339 
L 1207.69697 303.932903 
L 1201.434343 304.72 
L 1201.434343 292.32 
L 1188.909091 293.843077 
L 1188.909091 287.332683 
L 1182.646465 288.084706 
L 1182.646465 285.864828 
L 1176.383838 286.61703 
L 1176.383838 279.801407 
L 1170.121212 280.538182 
L 1170.121212 273.489231 
L 1163.858586 274.20866 
L 1163.858586 269.37 
L 1157.59596 270.079162 
L 1157.59596 265.12 
L 1138.808081 267.236129 
L 1138.808081 259.506885 
L 1132.545455 260.196923 
L 1132.545455 257.553149 
L 1120.020202 258.934525 
L 1120.020202 250.756364 
L 1113.757576 251.424 
L 1113.757576 245.79052 
L 1107.494949 246.44093 
L 1107.494949 243.562105 
L 1094.969697 244.859645 
L 1094.969697 238.94515 
L 1082.444444 240.218182 
L 1082.444444 237.178537 
L 1076.181818 237.812025 
L 1076.181818 234.72 
L 1069.919192 235.346087 
L 1069.919192 232.2 
L 1057.393939 233.444051 
L 1057.393939 230.225732 
L 1051.131313 230.843077 
L 1051.131313 227.566452 
L 1019.818182 230.688 
L 1019.818182 227.278389 
L 1013.555556 227.909189 
L 1013.555556 224.434286 
L 994.767677 226.32 
L 994.767677 222.736783 
L 963.454545 225.954783 
L 963.454545 218.414118 
L 957.191919 219.04 
L 957.191919 215.161791 
L 925.878788 218.310698 
L 919.616162 218.97 
L 919.616162 214.87748 
L 907.090909 216.1728 
L 907.090909 203.323279 
L 900.828283 203.89686 
L 900.828283 199.44 
L 894.565657 199.990588 
L 894.565657 195.425085 
L 888.30303 195.950769 
L 888.30303 186.511304 
L 856.989899 188.901818 
L 825.676768 191.52 
L 806.888889 193.214118 
L 806.888889 187.813069 
L 781.838384 190.035464 
L 756.787879 192.449032 
L 756.787879 186.511304 
L 744.262626 187.68 
L 744.262626 181.488539 
L 731.737374 182.582069 
L 731.737374 176.115349 
L 706.686869 178.173659 
L 700.424242 178.72 
L 700.424242 171.72 
L 694.161616 172.198481 
L 694.161616 164.935385 
L 662.848485 167.059726 
L 637.79798 168.98087 
L 612.747475 171.138462 
L 593.959596 172.939355 
L 575.171717 174.92339 
L 568.909091 175.630345 
L 568.909091 165.751579 
L 550.121212 167.52 
L 531.333333 169.496471 
L 512.545455 171.72 
L 493.757576 174.24 
L 493.757576 161.410909 
L 474.969697 163.422439 
L 462.444444 164.935385 
L 449.919192 166.611892 
L 437.393939 168.48 
L 424.868687 170.574545 
L 412.343434 172.939355 
L 399.818182 175.630345 
L 387.292929 178.72 
L 387.292929 157.181538 
L 374.767677 159.12 
L 362.242424 161.410909 
L 355.979798 162.72 
L 349.717172 164.16 
L 343.454545 165.751579 
L 337.191919 167.52 
L 330.929293 169.496471 
L 324.666667 171.72 
L 318.40404 174.24 
L 312.141414 177.12 
L 305.878788 180.443077 
L 299.616162 184.32 
L 293.353535 188.901818 
L 287.090909 194.4 
L 280.828283 201.12 
L 274.565657 209.52 
L 268.30303 220.32 
L 262.040404 234.72 
L 255.777778 254.88 
L 249.515152 285.12 
L 243.252525 335.52 
L 236.989899 436.32 
L 230.727273 738.72 
L 230.727273 133.92 
L 230.727273 133.92 
" style="fill:none;stroke:#ff7f0e;stroke-linecap:square;stroke-opacity:0.4;stroke-width:4;"/>
   </g>
   <g id="line2d_15">
    <path clip-path="url(#pbed0a0ae14)" d="M 1245.272727 352.981417 
L 1239.010101 353.847273 
L 1239.010101 283.706916 
L 1232.747475 284.410141 
L 1232.747475 266.680976 
L 1207.69697 269.322985 
L 1207.69697 254.88 
L 1201.434343 255.503505 
L 1201.434343 250.47 
L 1188.909091 251.696842 
L 1188.909091 233.067541 
L 1182.646465 233.612308 
L 1182.646465 228 
L 1151.333333 230.688 
L 1151.333333 227.768276 
L 1138.808081 228.859535 
L 1138.808081 225.877895 
L 1126.282828 226.966154 
L 1126.282828 214.56 
L 1113.757576 215.549448 
L 1113.757576 212.32 
L 1107.494949 212.806957 
L 1107.494949 199.407898 
L 1088.707071 200.683636 
L 1088.707071 197.167059 
L 1076.181818 198.004768 
L 1076.181818 190.746846 
L 1057.393939 191.914521 
L 1057.393939 188.143448 
L 1026.080808 190.08 
L 1026.080808 186.13295 
L 1013.555556 186.895182 
L 1013.555556 178.72 
L 1007.292929 179.054328 
L 1007.292929 174.846316 
L 994.767677 175.471145 
L 994.767677 171.138462 
L 988.505051 171.426977 
L 988.505051 166.995 
L 975.979798 167.52 
L 975.979798 162.9504 
L 932.141414 164.672542 
L 919.616162 165.202759 
L 919.616162 149.976637 
L 863.252525 151.366154 
L 813.151515 152.82 
L 800.626263 153.222128 
L 800.626263 146.926452 
L 763.050505 147.823448 
L 763.050505 140.952558 
L 700.424242 141.877895 
L 650.323232 142.814118 
L 606.484848 143.834754 
L 568.909091 144.916364 
L 537.59596 146.016 
L 537.59596 133.92 
L 230.727273 133.92 
L 230.727273 133.92 
" style="fill:none;stroke:#2ca02c;stroke-linecap:square;stroke-opacity:0.4;stroke-width:4;"/>
   </g>
   <g id="line2d_16">
    <path clip-path="url(#pbed0a0ae14)" d="M 1245.272727 293.367273 
L 1239.010101 294.095342 
L 1239.010101 272.821435 
L 1226.484848 274.163478 
L 1226.484848 253.047273 
L 1220.222222 253.65198 
L 1220.222222 243.598756 
L 1213.959596 244.17 
L 1213.959596 238.964211 
L 1207.69697 239.52 
L 1207.69697 236.864681 
L 1195.171717 237.971613 
L 1195.171717 232.528696 
L 1188.909091 233.067541 
L 1188.909091 230.289231 
L 1182.646465 230.821657 
L 1182.646465 228 
L 1176.383838 228.525587 
L 1176.383838 222.760678 
L 1163.858586 223.776 
L 1163.858586 211.730526 
L 1126.282828 214.56 
L 1113.757576 215.549448 
L 1113.757576 212.32 
L 1107.494949 212.806957 
L 1107.494949 202.821266 
L 1101.232323 203.260127 
L 1101.232323 199.827692 
L 1076.181818 201.562105 
L 1076.181818 194.4 
L 1069.919192 194.805906 
L 1069.919192 191.130811 
L 1038.606061 193.131189 
L 1038.606061 189.289014 
L 1032.343434 189.681702 
L 1032.343434 185.76 
L 994.767677 188.081194 
L 988.505051 188.488421 
L 988.505051 180.087939 
L 950.929293 182.304 
L 950.929293 177.816774 
L 925.878788 179.28 
L 925.878788 174.578824 
L 907.090909 175.630345 
L 907.090909 170.733913 
L 888.30303 171.72 
L 888.30303 166.611892 
L 850.727273 168.48 
L 844.464646 168.812308 
L 844.464646 163.279223 
L 838.20202 163.567059 
L 838.20202 157.872475 
L 825.676768 158.356364 
L 825.676768 152.434286 
L 781.838384 153.858462 
L 769.313131 154.306517 
L 769.313131 147.665455 
L 750.525253 148.150588 
L 750.525253 141.12 
L 687.89899 142.092973 
L 637.79798 143.083636 
L 593.959596 144.170847 
L 556.383838 145.331321 
L 531.333333 146.262857 
L 531.333333 133.92 
L 230.727273 133.92 
L 230.727273 133.92 
" style="fill:none;stroke:#d62728;stroke-linecap:square;stroke-opacity:0.4;stroke-width:4;"/>
   </g>
   <g id="line2d_17">
    <path clip-path="url(#pbed0a0ae14)" d="M 1245.272727 358.96186 
L 1239.010101 359.83751 
L 1239.010101 313.511266 
L 1232.747475 314.298947 
L 1232.747475 294.830092 
L 1226.484848 295.571613 
L 1226.484848 293.52 
L 1213.959596 295.011589 
L 1213.959596 277.780194 
L 1207.69697 278.481951 
L 1207.69697 262.210909 
L 1201.434343 262.862132 
L 1201.434343 260.434286 
L 1195.171717 261.083077 
L 1195.171717 248.513684 
L 1188.909091 249.12 
L 1188.909091 241.223226 
L 1182.646465 241.803243 
L 1182.646465 239.102609 
L 1176.383838 239.677377 
L 1176.383838 234.163094 
L 1163.858586 235.283128 
L 1163.858586 217.82289 
L 1145.070707 219.303529 
L 1145.070707 213.12 
L 1138.808081 213.594251 
L 1138.808081 200.70773 
L 1120.020202 201.96 
L 1120.020202 191.703439 
L 1107.494949 192.449032 
L 1107.494949 188.901818 
L 1088.707071 189.994172 
L 1088.707071 175.062857 
L 1082.444444 175.344658 
L 1082.444444 171.45931 
L 1069.919192 171.984336 
L 1069.919192 167.993239 
L 1019.818182 170.027463 
L 975.979798 172.017638 
L 975.979798 162.9504 
L 932.141414 164.672542 
L 888.30303 166.611892 
L 875.777778 167.211743 
L 875.777778 161.92 
L 838.20202 163.567059 
L 838.20202 157.872475 
L 800.626263 159.385263 
L 800.626263 153.222128 
L 763.050505 154.538182 
L 763.050505 147.823448 
L 719.212121 149.04 
L 675.373737 150.489863 
L 650.323232 151.450435 
L 650.323232 142.814118 
L 606.484848 143.834754 
L 568.909091 144.916364 
L 568.909091 133.92 
L 230.727273 133.92 
L 230.727273 133.92 
" style="fill:none;stroke:#9467bd;stroke-linecap:square;stroke-opacity:0.4;stroke-width:4;"/>
   </g>
   <g id="line2d_18">
    <path clip-path="url(#pbed0a0ae14)" d="M 1245.272727 332.173942 
L 1239.010101 333 
L 1239.010101 313.511266 
L 1232.747475 314.298947 
L 1232.747475 310.543009 
L 1226.484848 311.328 
L 1226.484848 309.42 
L 1220.222222 310.206996 
L 1220.222222 272.581463 
L 1213.959596 273.261176 
L 1213.959596 270.968276 
L 1207.69697 271.646733 
L 1207.69697 262.210909 
L 1201.434343 262.862132 
L 1201.434343 250.47 
L 1195.171717 251.080209 
L 1195.171717 237.971613 
L 1188.909091 238.534054 
L 1188.909091 227.480221 
L 1182.646465 228 
L 1182.646465 216.392727 
L 1176.383838 216.864 
L 1176.383838 207.76186 
L 1170.121212 208.193684 
L 1170.121212 201.915266 
L 1163.858586 202.32 
L 1163.858586 199.108024 
L 1138.808081 200.70773 
L 1138.808081 197.386667 
L 1126.282828 198.18 
L 1126.282828 194.780377 
L 1120.020202 195.16557 
L 1120.020202 177.402353 
L 1101.232323 178.272 
L 1101.232323 174.510604 
L 1076.181818 175.630345 
L 1076.181818 171.72 
L 1057.393939 172.524255 
L 1057.393939 168.48 
L 1038.606061 169.236788 
L 1038.606061 165.049412 
L 1032.343434 165.28 
L 1032.343434 161.000597 
L 1026.080808 161.204211 
L 1026.080808 156.829091 
L 969.717172 158.505366 
L 944.666667 159.331765 
L 944.666667 154.421695 
L 894.565657 155.912727 
L 856.989899 157.181538 
L 856.989899 151.535534 
L 844.464646 151.884356 
L 844.464646 146.016 
L 788.10101 147.212308 
L 738 148.493494 
L 725.474747 148.853333 
L 725.474747 141.48 
L 669.111111 142.43831 
L 619.010101 143.52 
L 606.484848 143.834754 
L 606.484848 133.92 
L 230.727273 133.92 
L 230.727273 133.92 
" style="fill:none;stroke:#8c564b;stroke-linecap:square;stroke-opacity:0.4;stroke-width:4;"/>
   </g>
   <g id="line2d_19">
    <path clip-path="url(#pbed0a0ae14)" d="M 1245.272727 359.83751 
L 1238.971203 360.72 
L 1238.971203 282.26717 
L 1232.669678 282.970237 
L 1232.669678 274.163478 
L 1226.368154 274.844272 
L 1226.368154 258.527035 
L 1220.066629 259.156364 
L 1220.066629 256.72203 
L 1213.765104 257.348571 
L 1213.765104 242.147368 
L 1207.46358 242.72 
L 1207.46358 226.457705 
L 1194.860531 227.480221 
L 1194.860531 224.64 
L 1188.559006 225.146816 
L 1188.559006 216.392727 
L 1182.257482 216.864 
L 1182.257482 213.864828 
L 1175.955957 214.326936 
L 1175.955957 208.193684 
L 1163.352908 209.072663 
L 1163.352908 205.92 
L 1157.051383 206.351138 
L 1157.051383 203.144096 
L 1150.749859 203.563636 
L 1150.749859 200.300488 
L 1144.448334 200.70773 
L 1144.448334 190.62 
L 1138.14681 190.976604 
L 1138.14681 187.509873 
L 1119.242236 188.547097 
L 1119.242236 181.355294 
L 1112.940711 181.667368 
L 1112.940711 170.451544 
L 1087.734613 171.45931 
L 1087.734613 167.52 
L 1037.322417 169.496471 
L 993.211745 171.426977 
L 980.608696 172.017638 
L 980.608696 167.52 
L 974.307171 167.7888 
L 974.307171 163.184516 
L 930.196499 164.935385 
L 904.990401 166.033274 
L 904.990401 160.92 
L 892.387352 161.410909 
L 892.387352 156.114495 
L 848.27668 157.637647 
L 804.166008 159.385263 
L 791.562959 159.932903 
L 791.562959 153.641739 
L 747.452287 155.265882 
L 709.643139 156.887089 
L 709.643139 149.427692 
L 671.833992 150.72 
L 634.024845 152.247273 
L 602.517222 153.749508 
L 577.311124 155.141053 
L 552.105025 156.742642 
L 526.898927 158.605714 
L 507.994353 160.215652 
L 501.692829 160.8 
L 501.692829 147.665455 
L 476.486731 149.04 
L 457.582157 150.265946 
L 438.677583 151.708235 
L 419.77301 153.429677 
L 407.16996 154.775172 
L 394.566911 156.32 
L 381.963862 158.112 
L 381.963862 133.92 
L 230.727273 133.92 
L 230.727273 133.92 
" style="fill:none;stroke:#e377c2;stroke-linecap:square;stroke-opacity:0.4;stroke-width:4;"/>
   </g>
   <g id="line2d_20">
    <path clip-path="url(#pbed0a0ae14)" d="M 1245.272727 344.498138 
L 1238.971203 345.354146 
L 1238.971203 282.26717 
L 1232.669678 282.970237 
L 1232.669678 269.63122 
L 1226.368154 270.296471 
L 1226.368154 263.305075 
L 1220.066629 263.952 
L 1220.066629 246.732435 
L 1213.765104 247.32 
L 1213.765104 234.180963 
L 1207.46358 234.72 
L 1207.46358 229.241739 
L 1201.162055 229.762623 
L 1201.162055 221.28 
L 1194.860531 221.768045 
L 1194.860531 212.956364 
L 1188.559006 213.408 
L 1188.559006 207.335029 
L 1169.654433 208.630588 
L 1169.654433 205.493964 
L 1131.845285 208.128589 
L 1131.845285 198.18 
L 1112.940711 199.407898 
L 1112.940711 195.950769 
L 1094.036138 197.167059 
L 1094.036138 193.604211 
L 1081.433089 194.4 
L 1081.433089 187.044324 
L 1037.322417 189.681702 
L 1012.116318 191.309781 
L 1012.116318 187.284706 
L 1005.814794 187.68 
L 1005.814794 183.567761 
L 999.513269 183.941053 
L 999.513269 179.738182 
L 993.211745 180.087939 
L 993.211745 175.790769 
L 949.101073 178.173659 
L 930.196499 179.28 
L 930.196499 169.797966 
L 892.387352 171.72 
L 879.784303 172.407273 
L 879.784303 167.211743 
L 841.975155 169.151068 
L 804.166008 171.330309 
L 791.562959 172.117895 
L 791.562959 159.932903 
L 772.658385 160.8 
L 772.658385 154.306517 
L 766.356861 154.538182 
L 766.356861 147.823448 
L 722.246189 149.04 
L 684.437041 150.265946 
L 684.437041 142.204932 
L 640.326369 143.083636 
L 640.326369 133.92 
L 230.727273 133.92 
L 230.727273 133.92 
" style="fill:none;stroke:#7f7f7f;stroke-linecap:square;stroke-opacity:0.4;stroke-width:4;"/>
   </g>
   <g id="line2d_21">
    <path clip-path="url(#pbed0a0ae14)" d="M 1245.272727 333.853884 
L 1239.010101 334.683485 
L 1239.010101 319.009655 
L 1232.747475 319.810909 
L 1232.747475 312.429251 
L 1226.484848 313.219115 
L 1226.484848 295.571613 
L 1220.222222 296.32 
L 1220.222222 294.262326 
L 1213.959596 295.011589 
L 1213.959596 292.928451 
L 1207.69697 293.678491 
L 1207.69697 278.481951 
L 1201.434343 279.190588 
L 1201.434343 270 
L 1195.171717 270.683819 
L 1195.171717 268.32 
L 1188.909091 269.002234 
L 1188.909091 266.605714 
L 1182.646465 267.286154 
L 1182.646465 252.32 
L 1176.383838 252.949787 
L 1176.383838 250.352086 
L 1170.121212 250.978065 
L 1170.121212 242.982295 
L 1163.858586 243.581538 
L 1163.858586 240.845967 
L 1151.333333 242.04067 
L 1151.333333 239.250337 
L 1145.070707 239.845424 
L 1145.070707 231.244138 
L 1138.808081 231.806705 
L 1138.808081 228.859535 
L 1132.545455 229.414737 
L 1132.545455 226.418824 
L 1126.282828 226.966154 
L 1126.282828 208.128589 
L 1113.757576 209.050435 
L 1113.757576 202.387925 
L 1076.181818 205.072941 
L 1051.131313 206.983087 
L 1051.131313 196.056986 
L 1044.868687 196.485517 
L 1044.868687 192.72 
L 1038.606061 193.131189 
L 1038.606061 185.39234 
L 1019.818182 186.511304 
L 1019.818182 182.480584 
L 982.242424 184.704733 
L 982.242424 180.443077 
L 975.979798 180.803721 
L 975.979798 176.445 
L 938.40404 178.536393 
L 900.828283 180.844138 
L 894.565657 181.252174 
L 894.565657 176.362105 
L 856.989899 178.72 
L 825.676768 180.894757 
L 794.363636 183.291429 
L 763.050505 185.945806 
L 756.787879 186.511304 
L 756.787879 180.443077 
L 731.737374 182.582069 
L 712.949495 184.32 
L 712.949495 177.640482 
L 687.89899 179.854177 
L 675.373737 181.047273 
L 675.373737 173.709474 
L 650.323232 175.92 
L 644.060606 176.511549 
L 644.060606 168.48 
L 637.79798 168.98087 
L 637.79798 160.602353 
L 612.747475 162.27 
L 606.484848 162.72 
L 606.484848 153.429677 
L 581.434343 154.775172 
L 556.383838 156.32 
L 531.333333 158.112 
L 525.070707 158.605714 
L 525.070707 146.52 
L 500.020202 147.665455 
L 474.969697 149.04 
L 462.444444 149.835789 
L 437.393939 151.708235 
L 418.606061 153.429677 
L 406.080808 154.775172 
L 393.555556 156.32 
L 381.030303 158.112 
L 368.505051 160.215652 
L 362.242424 161.410909 
L 355.979798 162.72 
L 349.717172 164.16 
L 343.454545 165.751579 
L 337.191919 167.52 
L 330.929293 169.496471 
L 324.666667 171.72 
L 318.40404 174.24 
L 318.40404 133.92 
L 230.727273 133.92 
L 230.727273 133.92 
" style="fill:none;stroke:#bcbd22;stroke-linecap:square;stroke-opacity:0.4;stroke-width:4;"/>
   </g>
   <g id="line2d_22">
    <path clip-path="url(#pbed0a0ae14)" d="M 1245.272727 340.437073 
L 1239.010101 341.28 
L 1239.010101 281.570704 
L 1232.747475 282.26717 
L 1232.747475 275.715215 
L 1226.484848 276.396923 
L 1226.484848 269.63122 
L 1220.222222 270.296471 
L 1220.222222 263.305075 
L 1213.959596 263.952 
L 1213.959596 259.156364 
L 1207.69697 259.792081 
L 1207.69697 254.88 
L 1201.434343 255.503505 
L 1201.434343 247.913717 
L 1195.171717 248.513684 
L 1195.171717 237.971613 
L 1188.909091 238.534054 
L 1188.909091 235.815652 
L 1182.646465 236.372459 
L 1182.646465 222.261573 
L 1170.121212 223.265455 
L 1170.121212 214.326936 
L 1151.333333 215.745882 
L 1151.333333 212.651361 
L 1138.808081 213.594251 
L 1138.808081 207.229091 
L 1132.545455 207.676098 
L 1132.545455 204.41816 
L 1120.020202 205.293913 
L 1120.020202 198.584151 
L 1107.494949 199.407898 
L 1107.494949 195.950769 
L 1094.969697 196.756364 
L 1094.969697 189.625263 
L 1082.444444 190.368 
L 1082.444444 186.687785 
L 1038.606061 189.289014 
L 1001.030303 191.731765 
L 1001.030303 187.68 
L 982.242424 188.901818 
L 982.242424 184.704733 
L 975.979798 185.095385 
L 975.979798 180.803721 
L 969.717172 181.17 
L 969.717172 176.779843 
L 932.141414 178.905124 
L 913.353535 180.048814 
L 913.353535 175.273846 
L 875.777778 177.509189 
L 844.464646 179.565283 
L 831.939394 180.443077 
L 831.939394 175.022913 
L 819.414141 175.836832 
L 819.414141 170.208 
L 788.10101 172.117895 
L 788.10101 153.641739 
L 756.787879 154.775172 
L 756.787879 147.985116 
L 744.262626 148.32 
L 744.262626 141.206747 
L 681.636364 142.204932 
L 662.848485 142.56 
L 662.848485 133.92 
L 230.727273 133.92 
L 230.727273 133.92 
" style="fill:none;stroke:#17becf;stroke-linecap:square;stroke-opacity:0.4;stroke-width:4;"/>
   </g>
   <g id="line2d_23">
    <path clip-path="url(#pbed0a0ae14)" d="M 1245.272727 410.672263 
L 1244.645691 410.76507 
L 1244.645691 410.655055 
L 1244.645691 376.109099 
L 1244.018654 376.198932 
L 1244.018654 372.531615 
L 1243.391617 372.621049 
L 1243.391617 353.413491 
L 1242.76458 353.50011 
L 1242.76458 351.36 
L 1242.137544 351.44632 
L 1242.137544 348.190616 
L 1241.510507 348.276428 
L 1241.510507 343.688558 
L 1240.88347 343.773587 
L 1240.88347 334.096744 
L 1240.256433 334.179909 
L 1240.256433 331.983158 
L 1239.629397 332.065926 
L 1239.629397 331.214472 
L 1239.00236 331.297126 
L 1239.00236 327.159103 
L 1238.375323 327.240914 
L 1238.375323 325.842515 
L 1237.748286 325.92408 
L 1237.748286 314.752824 
L 1237.12125 314.83179 
L 1237.12125 314.090079 
L 1236.494213 314.168928 
L 1236.494213 313.424428 
L 1235.867176 313.503158 
L 1235.867176 312.942925 
L 1235.240139 313.021582 
L 1235.240139 305.793458 
L 1234.613103 305.870291 
L 1234.613103 305.289024 
L 1233.986066 305.365768 
L 1233.986066 303.024367 
L 1233.359029 303.100541 
L 1233.359029 300.335956 
L 1232.731992 300.411429 
L 1232.731992 299.814278 
L 1232.104956 299.88965 
L 1232.104956 299.090687 
L 1231.477919 299.165902 
L 1231.477919 297.357037 
L 1230.850882 297.431802 
L 1230.850882 296.82536 
L 1230.223845 296.900018 
L 1230.223845 296.29173 
L 1229.596809 296.366281 
L 1229.596809 295.552383 
L 1228.969772 295.626765 
L 1228.969772 294.399926 
L 1228.342735 294.474017 
L 1228.342735 293.033664 
L 1227.715698 293.107396 
L 1227.715698 289.778824 
L 1227.088662 289.851621 
L 1227.088662 289.431921 
L 1226.461625 289.504659 
L 1226.461625 289.084045 
L 1225.834588 289.156721 
L 1225.834588 288.73519 
L 1225.207551 288.807805 
L 1225.207551 288.385352 
L 1224.580515 288.457905 
L 1224.580515 288.246316 
L 1222.699404 288.464188 
L 1222.699404 286.762702 
L 1222.072368 286.834934 
L 1222.072368 285.764623 
L 1221.445331 285.836588 
L 1221.445331 285.191761 
L 1220.191257 285.335487 
L 1220.191257 285.12 
L 1219.564221 285.191897 
L 1219.564221 281.276547 
L 1218.937184 281.347255 
L 1218.937184 280.907896 
L 1218.310147 280.97853 
L 1218.310147 279.65494 
L 1217.68311 279.725207 
L 1217.68311 277.501395 
L 1217.056074 277.570994 
L 1217.056074 277.347352 
L 1215.802 277.486602 
L 1215.802 276.813923 
L 1215.174963 276.883424 
L 1215.174963 276.433729 
L 1213.92089 276.572632 
L 1213.92089 275.443791 
L 1213.293853 275.512962 
L 1213.293853 273.00914 
L 1212.666816 273.077522 
L 1212.666816 272.84848 
L 1212.03978 272.91685 
L 1212.03978 272.457931 
L 1211.412743 272.52621 
L 1211.412743 272.066226 
L 1210.785706 272.134413 
L 1210.785706 271.67336 
L 1210.15867 271.741453 
L 1210.15867 271.510504 
L 1208.904596 271.646733 
L 1208.904596 268.386999 
L 1208.277559 268.454065 
L 1208.277559 267.749371 
L 1207.650523 267.816252 
L 1207.650523 266.636633 
L 1206.396449 266.769749 
L 1206.396449 266.295904 
L 1205.769412 266.362391 
L 1205.769412 264.93461 
L 1205.142376 265.000645 
L 1205.142376 264.761755 
L 1204.515339 264.82777 
L 1204.515339 263.388826 
L 1203.888302 263.45438 
L 1203.888302 262.97261 
L 1203.261265 263.038053 
L 1203.261265 261.343511 
L 1202.007192 261.473337 
L 1202.007192 258.291692 
L 1201.380155 258.355505 
L 1201.380155 257.862065 
L 1200.753118 257.925755 
L 1200.753118 257.431111 
L 1199.499045 257.558311 
L 1199.499045 256.565201 
L 1198.872008 256.628518 
L 1198.872008 256.379504 
L 1198.244971 256.442791 
L 1198.244971 256.193423 
L 1197.617935 256.256679 
L 1197.617935 254.503178 
L 1196.363861 254.628524 
L 1196.363861 253.872525 
L 1195.736824 253.935 
L 1195.736824 253.682376 
L 1195.109788 253.744818 
L 1195.109788 253.491831 
L 1193.228677 253.679248 
L 1193.228677 252.917802 
L 1192.601641 252.980105 
L 1192.601641 252.725657 
L 1191.974604 252.787925 
L 1191.974604 252.53311 
L 1191.347567 252.595341 
L 1191.347567 252.340157 
L 1189.466457 252.52694 
L 1189.466457 251.502297 
L 1188.83942 251.56428 
L 1188.83942 251.050132 
L 1188.212383 251.111975 
L 1188.212383 250.85439 
L 1187.585347 250.916195 
L 1187.585347 250.658234 
L 1186.331273 250.781832 
L 1186.331273 250.005684 
L 1185.704236 250.067268 
L 1185.704236 249.288332 
L 1185.0772 249.349665 
L 1185.0772 248.828781 
L 1184.450163 248.889968 
L 1184.450163 247.32 
L 1183.823126 247.380609 
L 1183.823126 245.535451 
L 1183.196089 245.595362 
L 1183.196089 245.330526 
L 1182.569053 245.390392 
L 1182.569053 245.125161 
L 1181.942016 245.184981 
L 1181.942016 244.120755 
L 1181.314979 244.180194 
L 1181.314979 243.913308 
L 1180.060906 244.032156 
L 1180.060906 243.497069 
L 1177.552759 243.734634 
L 1177.552759 242.928469 
L 1176.298685 243.046957 
L 1176.298685 241.967059 
L 1175.671648 242.02594 
L 1175.671648 240.396545 
L 1173.163502 240.629918 
L 1173.163502 238.712079 
L 1172.536465 238.769752 
L 1172.536465 238.494449 
L 1171.909428 238.552066 
L 1171.909428 237.723974 
L 1170.655355 237.838674 
L 1170.655355 237.561791 
L 1170.028318 237.619115 
L 1170.028318 235.671471 
L 1169.401281 235.728 
L 1169.401281 234.607751 
L 1166.893134 234.8325 
L 1166.893134 233.987524 
L 1166.266097 234.04349 
L 1166.266097 233.195294 
L 1165.639061 233.250942 
L 1165.639061 231.830287 
L 1165.012024 231.885354 
L 1165.012024 231.600135 
L 1163.75795 231.710197 
L 1163.75795 231.424397 
L 1163.130914 231.479391 
L 1163.130914 231.193138 
L 1162.503877 231.248063 
L 1162.503877 229.522946 
L 1161.87684 229.577143 
L 1161.87684 229.288349 
L 1161.249803 229.342474 
L 1161.249803 229.05322 
L 1160.622767 229.107273 
L 1160.622767 228.527509 
L 1159.99573 228.581355 
L 1159.99573 228.290843 
L 1158.11462 228.452345 
L 1158.11462 227.869515 
L 1157.487583 227.9232 
L 1157.487583 227.338764 
L 1156.233509 227.445773 
L 1156.233509 226.565783 
L 1154.352399 226.725517 
L 1154.352399 225.250029 
L 1153.725362 225.302699 
L 1153.725362 225.00644 
L 1152.471289 225.111681 
L 1152.471289 224.517571 
L 1151.844252 224.57 
L 1151.844252 223.974229 
L 1149.336105 224.183415 
L 1149.336105 223.285445 
L 1146.200921 223.546138 
L 1146.200921 222.944299 
L 1145.573885 222.99633 
L 1145.573885 222.694737 
L 1143.065738 222.902884 
L 1143.065738 222.600352 
L 1142.438701 222.652394 
L 1142.438701 222.34936 
L 1141.184627 222.453333 
L 1141.184627 222.149647 
L 1139.930554 222.253569 
L 1139.930554 221.644528 
L 1139.303517 221.696283 
L 1139.303517 221.391074 
L 1137.422407 221.546257 
L 1137.422407 220.933854 
L 1136.79537 220.985403 
L 1136.79537 220.678506 
L 1134.91426 220.833064 
L 1134.91426 220.525348 
L 1134.287223 220.576837 
L 1134.287223 220.268602 
L 1133.03315 220.371459 
L 1133.03315 220.062551 
L 1131.779076 220.165346 
L 1131.779076 215.797256 
L 1129.897966 215.945316 
L 1129.897966 215.314327 
L 1128.643893 215.412689 
L 1128.643893 215.0963 
L 1126.762782 215.243804 
L 1126.762782 214.608902 
L 1123.627599 214.854307 
L 1123.627599 214.53546 
L 1123.000562 214.584555 
L 1123.000562 214.265155 
L 1121.119452 214.412308 
L 1121.119452 213.450275 
L 1119.865378 213.547679 
L 1119.865378 213.225882 
L 1116.730194 213.4696 
L 1116.730194 212.823138 
L 1116.103158 212.871724 
L 1116.103158 212.547726 
L 1115.476121 212.596202 
L 1115.476121 212.271635 
L 1114.222047 212.368425 
L 1114.222047 212.043115 
L 1113.595011 212.091429 
L 1113.595011 211.765545 
L 1111.086864 211.95871 
L 1111.086864 211.631732 
L 1110.459827 211.68 
L 1110.459827 211.352443 
L 1109.83279 211.400597 
L 1109.83279 211.072458 
L 1109.205753 211.120498 
L 1109.205753 209.803146 
L 1108.578717 209.850543 
L 1108.578717 209.189043 
L 1107.324643 209.283306 
L 1107.324643 208.951579 
L 1104.189459 209.187379 
L 1104.189459 207.852703 
L 1101.681313 208.03952 
L 1101.681313 207.368197 
L 1099.800202 207.507833 
L 1099.800202 207.170983 
L 1099.173166 207.217462 
L 1099.173166 206.88 
L 1097.919092 206.972765 
L 1097.919092 206.634504 
L 1094.156872 206.913103 
L 1094.156872 206.573291 
L 1092.902798 206.666257 
L 1092.902798 206.325634 
L 1089.767614 206.55815 
L 1089.767614 205.873698 
L 1086.632431 206.105806 
L 1086.632431 204.036062 
L 1085.378357 204.127004 
L 1085.378357 203.780091 
L 1084.75132 203.825455 
L 1084.75132 203.129883 
L 1083.497247 203.22 
L 1083.497247 201.821828 
L 1082.87021 201.866179 
L 1082.87021 201.515294 
L 1080.9891 201.648094 
L 1080.9891 201.296147 
L 1080.362063 201.340328 
L 1080.362063 200.634642 
L 1079.735026 200.678476 
L 1079.735026 200.324734 
L 1079.10799 200.368421 
L 1079.10799 199.65913 
L 1078.480953 199.702465 
L 1078.480953 199.346913 
L 1077.226879 199.433342 
L 1077.226879 198.72 
L 1075.345769 198.848827 
L 1075.345769 198.490822 
L 1070.956512 198.791952 
L 1070.956512 198.432 
L 1070.329475 198.475037 
L 1070.329475 197.753267 
L 1069.702438 197.795936 
L 1069.702438 197.434114 
L 1069.075402 197.476627 
L 1069.075402 197.114106 
L 1062.177998 197.583158 
L 1062.177998 197.217772 
L 1061.550961 197.260541 
L 1061.550961 196.894442 
L 1060.296887 196.979716 
L 1060.296887 196.612683 
L 1051.518373 197.213023 
L 1051.518373 196.842382 
L 1046.502079 197.188823 
L 1046.502079 196.815868 
L 1045.248005 196.902621 
L 1045.248005 196.528696 
L 1044.620969 196.571934 
L 1044.620969 196.197263 
L 1041.485785 196.413204 
L 1041.485785 195.66 
L 1039.604675 195.788894 
L 1039.604675 195.410808 
L 1038.350601 195.496569 
L 1038.350601 195.117488 
L 1036.469491 195.245874 
L 1036.469491 194.865556 
L 1035.842454 194.908235 
L 1035.842454 194.527148 
L 1029.572087 194.954862 
L 1029.572087 194.570847 
L 1028.94505 194.61371 
L 1028.94505 194.228911 
L 1028.318013 194.271592 
L 1028.318013 193.886006 
L 1027.690977 193.928505 
L 1027.690977 193.155202 
L 1025.809866 193.281593 
L 1025.809866 192.893381 
L 1023.301719 193.061756 
L 1023.301719 192.672 
L 1022.047646 192.756052 
L 1022.047646 192.36524 
L 1021.420609 192.407106 
L 1021.420609 192.015484 
L 1020.793572 192.057159 
L 1020.793572 191.664724 
L 1018.285425 191.831015 
L 1018.285425 191.042422 
L 1016.404315 191.166243 
L 1016.404315 190.373835 
L 1015.777278 190.414714 
L 1015.777278 189.619492 
L 1013.269131 189.781527 
L 1013.269131 188.581224 
L 1012.015058 188.661022 
L 1012.015058 188.259226 
L 1008.252837 188.49843 
L 1008.252837 188.094449 
L 1007.625801 188.134254 
L 1007.625801 187.729412 
L 1006.998764 187.769007 
L 1006.998764 187.363299 
L 1003.86358 187.560798 
L 1003.86358 187.153136 
L 1001.98247 187.27152 
L 1001.98247 186.862433 
L 993.830992 187.377978 
L 993.830992 186.964678 
L 991.322845 187.124211 
L 991.322845 186.709165 
L 990.695809 186.748916 
L 990.695809 185.91638 
L 988.187662 186.073707 
L 988.187662 185.655352 
L 987.560625 185.694545 
L 987.560625 184.855357 
L 984.425441 185.049322 
L 984.425441 184.627317 
L 983.798404 184.665995 
L 983.798404 183.819465 
L 983.171368 183.857615 
L 983.171368 183.433083 
L 978.155074 183.738014 
L 978.155074 183.310447 
L 976.901 183.386667 
L 976.901 182.528346 
L 968.749522 183.021639 
L 968.749522 182.5875 
L 965.614339 182.778353 
L 965.614339 181.904918 
L 963.733228 182.018268 
L 963.733228 181.140189 
L 962.479155 181.214787 
L 962.479155 180.332658 
L 960.598045 180.443077 
L 960.598045 180 
L 956.208788 180.25743 
L 956.208788 179.811374 
L 948.05731 180.292881 
L 948.05731 179.841809 
L 947.430273 179.878933 
L 947.430273 179.426796 
L 943.041016 179.685989 
L 943.041016 179.230749 
L 939.905832 179.415993 
L 939.905832 178.958298 
L 938.024722 179.069139 
L 938.024722 178.609655 
L 929.246207 179.129302 
L 929.246207 178.66414 
L 924.229913 178.963682 
L 924.229913 178.494874 
L 922.97584 178.569664 
L 922.97584 178.099345 
L 913.570289 178.662857 
L 913.570289 178.186213 
L 912.943252 178.223918 
L 912.943252 177.746087 
L 907.926958 178.047039 
L 907.926958 177.082855 
L 902.283627 177.41948 
L 902.283627 176.932663 
L 901.029554 177.007402 
L 901.029554 176.029661 
L 898.521407 176.176769 
L 898.521407 175.685035 
L 897.89437 175.721575 
L 897.89437 175.228581 
L 896.01326 175.337384 
L 896.01326 174.84232 
L 887.861782 175.3152 
L 887.861782 174.81395 
L 887.234745 174.850365 
L 887.234745 174.347807 
L 883.472525 174.565161 
L 883.472525 174.059193 
L 882.845488 174.095224 
L 882.845488 173.587925 
L 877.829194 173.875113 
L 877.829194 173.363478 
L 876.575121 173.435064 
L 876.575121 172.921635 
L 871.558827 173.2071 
L 871.558827 172.689231 
L 870.304753 172.760367 
L 870.304753 172.240661 
L 869.677717 172.275882 
L 869.677717 171.754775 
L 869.05068 171.789613 
L 869.05068 171.267097 
L 867.16957 171.370647 
L 867.16957 170.845809 
L 860.899202 171.190588 
L 860.899202 170.660187 
L 855.255871 170.971838 
L 855.255871 169.899603 
L 845.85032 170.416552 
L 845.85032 169.871678 
L 845.223284 169.90618 
L 845.223284 169.359769 
L 843.96921 169.427988 
L 843.96921 168.879538 
L 835.190696 169.3575 
L 835.190696 168.243288 
L 830.801438 168.48 
L 830.801438 167.917633 
L 827.039218 168.12 
L 827.039218 166.985606 
L 826.412181 167.018507 
L 826.412181 166.449084 
L 823.276997 166.611892 
L 823.276997 166.038637 
L 819.514777 166.232903 
L 819.514777 165.076364 
L 808.228116 165.653333 
L 808.228116 165.063151 
L 800.076638 165.485762 
L 800.076638 164.286527 
L 793.179234 164.64 
L 793.179234 162.199702 
L 791.298123 162.290149 
L 791.298123 161.674963 
L 790.671087 161.704615 
L 790.671087 161.087487 
L 780.638499 161.560479 
L 780.638499 160.931765 
L 779.384425 160.990742 
L 779.384425 160.359344 
L 774.368131 160.592547 
L 774.368131 159.954437 
L 766.216654 160.333438 
L 766.216654 159.685022 
L 765.589617 159.713939 
L 765.589617 159.063371 
L 761.827396 159.234027 
L 761.827396 157.92 
L 756.184066 158.167423 
L 756.184066 157.501651 
L 750.540735 157.747578 
L 750.540735 157.073596 
L 741.135184 157.483636 
L 741.135184 156.796596 
L 721.697045 157.666748 
L 721.697045 156.952924 
L 716.053714 157.210435 
L 716.053714 156.487164 
L 714.79964 156.543441 
L 714.79964 155.816629 
L 711.03742 155.981887 
L 711.03742 155.24796 
L 710.410383 155.274855 
L 710.410383 154.538182 
L 702.258905 154.882259 
L 702.258905 154.131825 
L 696.615575 154.368375 
L 696.615575 153.6075 
L 692.853354 153.76252 
L 692.853354 152.99385 
L 689.091134 153.14543 
L 689.091134 152.368806 
L 654.604113 153.820429 
L 654.604113 152.982464 
L 650.214856 153.175572 
L 650.214856 152.326957 
L 641.436341 152.708166 
L 641.436341 151.84 
L 612.592651 153.150525 
L 612.592651 152.218089 
L 596.916732 152.976716 
L 596.916732 152.003721 
L 586.257108 152.529231 
L 586.257108 151.525479 
L 558.040454 152.995325 
L 532.958984 154.524409 
L 511.639735 156.030968 
L 511.639735 154.775172 
L 503.488257 155.376319 
L 503.488257 152.777906 
L 500.98011 152.947416 
L 500.98011 151.628108 
L 479.660861 153.096585 
L 479.660861 151.664743 
L 463.984942 152.82 
L 463.984942 151.290235 
L 450.81717 152.297901 
L 450.81717 150.673463 
L 438.903472 151.604211 
L 438.903472 149.882463 
L 424.481627 151.036981 
L 424.481627 149.183091 
L 412.567929 150.156242 
L 412.567929 148.174545 
L 409.432745 148.41863 
L 409.432745 146.390103 
L 397.519047 147.261176 
L 397.519047 145.078672 
L 389.367569 145.64093 
L 389.367569 143.33323 
L 373.064614 144.392727 
L 358.642769 145.550769 
L 358.015732 145.606957 
L 358.015732 142.727767 
L 344.220924 143.78087 
L 332.934262 144.85012 
L 322.901674 146.016 
L 314.12316 147.261176 
L 312.24205 147.562105 
L 312.24205 143.083636 
L 303.463535 144.170847 
L 295.939094 145.331321 
L 291.549837 146.138182 
L 291.549837 140.091429 
L 284.025396 140.952558 
L 277.755029 141.877895 
L 272.111698 142.946866 
L 267.722441 144 
L 263.96022 145.12 
L 260.825037 146.262857 
L 257.689853 147.665455 
L 255.181706 149.04 
L 252.673559 150.72 
L 252.046522 151.2 
L 252.046522 133.92 
L 230.727273 133.92 
L 230.727273 133.92 
" style="fill:none;stroke:#000080;stroke-linecap:square;stroke-opacity:0.8;stroke-width:3;"/>
   </g>
   <g id="patch_3">
    <path d="M 180 768.96 
L 180 103.68 
" style="fill:none;stroke:#000000;stroke-linecap:square;stroke-linejoin:miter;stroke-width:0.8;"/>
   </g>
   <g id="patch_4">
    <path d="M 1296 768.96 
L 1296 103.68 
" style="fill:none;stroke:#000000;stroke-linecap:square;stroke-linejoin:miter;stroke-width:0.8;"/>
   </g>
   <g id="patch_5">
    <path d="M 180 768.96 
L 1296 768.96 
" style="fill:none;stroke:#000000;stroke-linecap:square;stroke-linejoin:miter;stroke-width:0.8;"/>
   </g>
   <g id="patch_6">
    <path d="M 180 103.68 
L 1296 103.68 
" style="fill:none;stroke:#000000;stroke-linecap:square;stroke-linejoin:miter;stroke-width:0.8;"/>
   </g>
   <g id="legend_1">
    <g id="patch_7">
     <path d="M 975.590625 758.96 
L 1282 758.96 
Q 1286 758.96 1286 754.96 
L 1286 434.04125 
Q 1286 430.04125 1282 430.04125 
L 975.590625 430.04125 
Q 971.590625 430.04125 971.590625 434.04125 
L 971.590625 754.96 
Q 971.590625 758.96 975.590625 758.96 
z
" style="fill:#ffffff;opacity:0.8;stroke:#cccccc;stroke-linejoin:miter;"/>
    </g>
    <g id="line2d_24">
     <path d="M 979.590625 446.238125 
L 1019.590625 446.238125 
" style="fill:none;stroke:#1f77b4;stroke-linecap:square;stroke-opacity:0.4;stroke-width:4;"/>
    </g>
    <g id="line2d_25"/>
    <g id="text_15">
     <!-- Fold 1(AUPR = 0.9456) -->
     <g transform="translate(1035.590625 453.238125)scale(0.2 -0.2)">
      <defs>
       <path d="M 9.8125 72.90625 
L 51.703125 72.90625 
L 51.703125 64.59375 
L 19.671875 64.59375 
L 19.671875 43.109375 
L 48.578125 43.109375 
L 48.578125 34.8125 
L 19.671875 34.8125 
L 19.671875 0 
L 9.8125 0 
z
" id="DejaVuSans-70"/>
       <path d="M 45.40625 46.390625 
L 45.40625 75.984375 
L 54.390625 75.984375 
L 54.390625 0 
L 45.40625 0 
L 45.40625 8.203125 
Q 42.578125 3.328125 38.25 0.953125 
Q 33.9375 -1.421875 27.875 -1.421875 
Q 17.96875 -1.421875 11.734375 6.484375 
Q 5.515625 14.40625 5.515625 27.296875 
Q 5.515625 40.1875 11.734375 48.09375 
Q 17.96875 56 27.875 56 
Q 33.9375 56 38.25 53.625 
Q 42.578125 51.265625 45.40625 46.390625 
z
M 14.796875 27.296875 
Q 14.796875 17.390625 18.875 11.75 
Q 22.953125 6.109375 30.078125 6.109375 
Q 37.203125 6.109375 41.296875 11.75 
Q 45.40625 17.390625 45.40625 27.296875 
Q 45.40625 37.203125 41.296875 42.84375 
Q 37.203125 48.484375 30.078125 48.484375 
Q 22.953125 48.484375 18.875 42.84375 
Q 14.796875 37.203125 14.796875 27.296875 
z
" id="DejaVuSans-100"/>
       <path id="DejaVuSans-32"/>
       <path d="M 31 75.875 
Q 24.46875 64.65625 21.28125 53.65625 
Q 18.109375 42.671875 18.109375 31.390625 
Q 18.109375 20.125 21.3125 9.0625 
Q 24.515625 -2 31 -13.1875 
L 23.1875 -13.1875 
Q 15.875 -1.703125 12.234375 9.375 
Q 8.59375 20.453125 8.59375 31.390625 
Q 8.59375 42.28125 12.203125 53.3125 
Q 15.828125 64.359375 23.1875 75.875 
z
" id="DejaVuSans-40"/>
       <path d="M 34.1875 63.1875 
L 20.796875 26.90625 
L 47.609375 26.90625 
z
M 28.609375 72.90625 
L 39.796875 72.90625 
L 67.578125 0 
L 57.328125 0 
L 50.6875 18.703125 
L 17.828125 18.703125 
L 11.1875 0 
L 0.78125 0 
z
" id="DejaVuSans-65"/>
       <path d="M 8.6875 72.90625 
L 18.609375 72.90625 
L 18.609375 28.609375 
Q 18.609375 16.890625 22.84375 11.734375 
Q 27.09375 6.59375 36.625 6.59375 
Q 46.09375 6.59375 50.34375 11.734375 
Q 54.59375 16.890625 54.59375 28.609375 
L 54.59375 72.90625 
L 64.5 72.90625 
L 64.5 27.390625 
Q 64.5 13.140625 57.4375 5.859375 
Q 50.390625 -1.421875 36.625 -1.421875 
Q 22.796875 -1.421875 15.734375 5.859375 
Q 8.6875 13.140625 8.6875 27.390625 
z
" id="DejaVuSans-85"/>
       <path d="M 10.59375 45.40625 
L 73.1875 45.40625 
L 73.1875 37.203125 
L 10.59375 37.203125 
z
M 10.59375 25.484375 
L 73.1875 25.484375 
L 73.1875 17.1875 
L 10.59375 17.1875 
z
" id="DejaVuSans-61"/>
       <path d="M 10.984375 1.515625 
L 10.984375 10.5 
Q 14.703125 8.734375 18.5 7.8125 
Q 22.3125 6.890625 25.984375 6.890625 
Q 35.75 6.890625 40.890625 13.453125 
Q 46.046875 20.015625 46.78125 33.40625 
Q 43.953125 29.203125 39.59375 26.953125 
Q 35.25 24.703125 29.984375 24.703125 
Q 19.046875 24.703125 12.671875 31.3125 
Q 6.296875 37.9375 6.296875 49.421875 
Q 6.296875 60.640625 12.9375 67.421875 
Q 19.578125 74.21875 30.609375 74.21875 
Q 43.265625 74.21875 49.921875 64.515625 
Q 56.59375 54.828125 56.59375 36.375 
Q 56.59375 19.140625 48.40625 8.859375 
Q 40.234375 -1.421875 26.421875 -1.421875 
Q 22.703125 -1.421875 18.890625 -0.6875 
Q 15.09375 0.046875 10.984375 1.515625 
z
M 30.609375 32.421875 
Q 37.25 32.421875 41.125 36.953125 
Q 45.015625 41.5 45.015625 49.421875 
Q 45.015625 57.28125 41.125 61.84375 
Q 37.25 66.40625 30.609375 66.40625 
Q 23.96875 66.40625 20.09375 61.84375 
Q 16.21875 57.28125 16.21875 49.421875 
Q 16.21875 41.5 20.09375 36.953125 
Q 23.96875 32.421875 30.609375 32.421875 
z
" id="DejaVuSans-57"/>
       <path d="M 10.796875 72.90625 
L 49.515625 72.90625 
L 49.515625 64.59375 
L 19.828125 64.59375 
L 19.828125 46.734375 
Q 21.96875 47.46875 24.109375 47.828125 
Q 26.265625 48.1875 28.421875 48.1875 
Q 40.625 48.1875 47.75 41.5 
Q 54.890625 34.8125 54.890625 23.390625 
Q 54.890625 11.625 47.5625 5.09375 
Q 40.234375 -1.421875 26.90625 -1.421875 
Q 22.3125 -1.421875 17.546875 -0.640625 
Q 12.796875 0.140625 7.71875 1.703125 
L 7.71875 11.625 
Q 12.109375 9.234375 16.796875 8.0625 
Q 21.484375 6.890625 26.703125 6.890625 
Q 35.15625 6.890625 40.078125 11.328125 
Q 45.015625 15.765625 45.015625 23.390625 
Q 45.015625 31 40.078125 35.4375 
Q 35.15625 39.890625 26.703125 39.890625 
Q 22.75 39.890625 18.8125 39.015625 
Q 14.890625 38.140625 10.796875 36.28125 
z
" id="DejaVuSans-53"/>
       <path d="M 8.015625 75.875 
L 15.828125 75.875 
Q 23.140625 64.359375 26.78125 53.3125 
Q 30.421875 42.28125 30.421875 31.390625 
Q 30.421875 20.453125 26.78125 9.375 
Q 23.140625 -1.703125 15.828125 -13.1875 
L 8.015625 -13.1875 
Q 14.5 -2 17.703125 9.0625 
Q 20.90625 20.125 20.90625 31.390625 
Q 20.90625 42.671875 17.703125 53.65625 
Q 14.5 64.65625 8.015625 75.875 
z
" id="DejaVuSans-41"/>
      </defs>
      <use xlink:href="#DejaVuSans-70"/>
      <use x="53.894531" xlink:href="#DejaVuSans-111"/>
      <use x="115.076172" xlink:href="#DejaVuSans-108"/>
      <use x="142.859375" xlink:href="#DejaVuSans-100"/>
      <use x="206.335938" xlink:href="#DejaVuSans-32"/>
      <use x="238.123047" xlink:href="#DejaVuSans-49"/>
      <use x="301.746094" xlink:href="#DejaVuSans-40"/>
      <use x="340.759766" xlink:href="#DejaVuSans-65"/>
      <use x="409.167969" xlink:href="#DejaVuSans-85"/>
      <use x="482.361328" xlink:href="#DejaVuSans-80"/>
      <use x="542.664062" xlink:href="#DejaVuSans-82"/>
      <use x="612.146484" xlink:href="#DejaVuSans-32"/>
      <use x="643.933594" xlink:href="#DejaVuSans-61"/>
      <use x="727.722656" xlink:href="#DejaVuSans-32"/>
      <use x="759.509766" xlink:href="#DejaVuSans-48"/>
      <use x="823.132812" xlink:href="#DejaVuSans-46"/>
      <use x="854.919922" xlink:href="#DejaVuSans-57"/>
      <use x="918.542969" xlink:href="#DejaVuSans-52"/>
      <use x="982.166016" xlink:href="#DejaVuSans-53"/>
      <use x="1045.789062" xlink:href="#DejaVuSans-54"/>
      <use x="1109.412109" xlink:href="#DejaVuSans-41"/>
     </g>
    </g>
    <g id="line2d_26">
     <path d="M 979.590625 475.594375 
L 1019.590625 475.594375 
" style="fill:none;stroke:#ff7f0e;stroke-linecap:square;stroke-opacity:0.4;stroke-width:4;"/>
    </g>
    <g id="line2d_27"/>
    <g id="text_16">
     <!-- Fold 2(AUPR = 0.8937) -->
     <g transform="translate(1035.590625 482.594375)scale(0.2 -0.2)">
      <defs>
       <path d="M 40.578125 39.3125 
Q 47.65625 37.796875 51.625 33 
Q 55.609375 28.21875 55.609375 21.1875 
Q 55.609375 10.40625 48.1875 4.484375 
Q 40.765625 -1.421875 27.09375 -1.421875 
Q 22.515625 -1.421875 17.65625 -0.515625 
Q 12.796875 0.390625 7.625 2.203125 
L 7.625 11.71875 
Q 11.71875 9.328125 16.59375 8.109375 
Q 21.484375 6.890625 26.8125 6.890625 
Q 36.078125 6.890625 40.9375 10.546875 
Q 45.796875 14.203125 45.796875 21.1875 
Q 45.796875 27.640625 41.28125 31.265625 
Q 36.765625 34.90625 28.71875 34.90625 
L 20.21875 34.90625 
L 20.21875 43.015625 
L 29.109375 43.015625 
Q 36.375 43.015625 40.234375 45.921875 
Q 44.09375 48.828125 44.09375 54.296875 
Q 44.09375 59.90625 40.109375 62.90625 
Q 36.140625 65.921875 28.71875 65.921875 
Q 24.65625 65.921875 20.015625 65.03125 
Q 15.375 64.15625 9.8125 62.3125 
L 9.8125 71.09375 
Q 15.4375 72.65625 20.34375 73.4375 
Q 25.25 74.21875 29.59375 74.21875 
Q 40.828125 74.21875 47.359375 69.109375 
Q 53.90625 64.015625 53.90625 55.328125 
Q 53.90625 49.265625 50.4375 45.09375 
Q 46.96875 40.921875 40.578125 39.3125 
z
" id="DejaVuSans-51"/>
       <path d="M 8.203125 72.90625 
L 55.078125 72.90625 
L 55.078125 68.703125 
L 28.609375 0 
L 18.3125 0 
L 43.21875 64.59375 
L 8.203125 64.59375 
z
" id="DejaVuSans-55"/>
      </defs>
      <use xlink:href="#DejaVuSans-70"/>
      <use x="53.894531" xlink:href="#DejaVuSans-111"/>
      <use x="115.076172" xlink:href="#DejaVuSans-108"/>
      <use x="142.859375" xlink:href="#DejaVuSans-100"/>
      <use x="206.335938" xlink:href="#DejaVuSans-32"/>
      <use x="238.123047" xlink:href="#DejaVuSans-50"/>
      <use x="301.746094" xlink:href="#DejaVuSans-40"/>
      <use x="340.759766" xlink:href="#DejaVuSans-65"/>
      <use x="409.167969" xlink:href="#DejaVuSans-85"/>
      <use x="482.361328" xlink:href="#DejaVuSans-80"/>
      <use x="542.664062" xlink:href="#DejaVuSans-82"/>
      <use x="612.146484" xlink:href="#DejaVuSans-32"/>
      <use x="643.933594" xlink:href="#DejaVuSans-61"/>
      <use x="727.722656" xlink:href="#DejaVuSans-32"/>
      <use x="759.509766" xlink:href="#DejaVuSans-48"/>
      <use x="823.132812" xlink:href="#DejaVuSans-46"/>
      <use x="854.919922" xlink:href="#DejaVuSans-56"/>
      <use x="918.542969" xlink:href="#DejaVuSans-57"/>
      <use x="982.166016" xlink:href="#DejaVuSans-51"/>
      <use x="1045.789062" xlink:href="#DejaVuSans-55"/>
      <use x="1109.412109" xlink:href="#DejaVuSans-41"/>
     </g>
    </g>
    <g id="line2d_28">
     <path d="M 979.590625 504.950625 
L 1019.590625 504.950625 
" style="fill:none;stroke:#2ca02c;stroke-linecap:square;stroke-opacity:0.4;stroke-width:4;"/>
    </g>
    <g id="line2d_29"/>
    <g id="text_17">
     <!-- Fold 3(AUPR = 0.9683) -->
     <g transform="translate(1035.590625 511.950625)scale(0.2 -0.2)">
      <use xlink:href="#DejaVuSans-70"/>
      <use x="53.894531" xlink:href="#DejaVuSans-111"/>
      <use x="115.076172" xlink:href="#DejaVuSans-108"/>
      <use x="142.859375" xlink:href="#DejaVuSans-100"/>
      <use x="206.335938" xlink:href="#DejaVuSans-32"/>
      <use x="238.123047" xlink:href="#DejaVuSans-51"/>
      <use x="301.746094" xlink:href="#DejaVuSans-40"/>
      <use x="340.759766" xlink:href="#DejaVuSans-65"/>
      <use x="409.167969" xlink:href="#DejaVuSans-85"/>
      <use x="482.361328" xlink:href="#DejaVuSans-80"/>
      <use x="542.664062" xlink:href="#DejaVuSans-82"/>
      <use x="612.146484" xlink:href="#DejaVuSans-32"/>
      <use x="643.933594" xlink:href="#DejaVuSans-61"/>
      <use x="727.722656" xlink:href="#DejaVuSans-32"/>
      <use x="759.509766" xlink:href="#DejaVuSans-48"/>
      <use x="823.132812" xlink:href="#DejaVuSans-46"/>
      <use x="854.919922" xlink:href="#DejaVuSans-57"/>
      <use x="918.542969" xlink:href="#DejaVuSans-54"/>
      <use x="982.166016" xlink:href="#DejaVuSans-56"/>
      <use x="1045.789062" xlink:href="#DejaVuSans-51"/>
      <use x="1109.412109" xlink:href="#DejaVuSans-41"/>
     </g>
    </g>
    <g id="line2d_30">
     <path d="M 979.590625 534.306875 
L 1019.590625 534.306875 
" style="fill:none;stroke:#d62728;stroke-linecap:square;stroke-opacity:0.4;stroke-width:4;"/>
    </g>
    <g id="line2d_31"/>
    <g id="text_18">
     <!-- Fold 4(AUPR = 0.9656) -->
     <g transform="translate(1035.590625 541.306875)scale(0.2 -0.2)">
      <use xlink:href="#DejaVuSans-70"/>
      <use x="53.894531" xlink:href="#DejaVuSans-111"/>
      <use x="115.076172" xlink:href="#DejaVuSans-108"/>
      <use x="142.859375" xlink:href="#DejaVuSans-100"/>
      <use x="206.335938" xlink:href="#DejaVuSans-32"/>
      <use x="238.123047" xlink:href="#DejaVuSans-52"/>
      <use x="301.746094" xlink:href="#DejaVuSans-40"/>
      <use x="340.759766" xlink:href="#DejaVuSans-65"/>
      <use x="409.167969" xlink:href="#DejaVuSans-85"/>
      <use x="482.361328" xlink:href="#DejaVuSans-80"/>
      <use x="542.664062" xlink:href="#DejaVuSans-82"/>
      <use x="612.146484" xlink:href="#DejaVuSans-32"/>
      <use x="643.933594" xlink:href="#DejaVuSans-61"/>
      <use x="727.722656" xlink:href="#DejaVuSans-32"/>
      <use x="759.509766" xlink:href="#DejaVuSans-48"/>
      <use x="823.132812" xlink:href="#DejaVuSans-46"/>
      <use x="854.919922" xlink:href="#DejaVuSans-57"/>
      <use x="918.542969" xlink:href="#DejaVuSans-54"/>
      <use x="982.166016" xlink:href="#DejaVuSans-53"/>
      <use x="1045.789062" xlink:href="#DejaVuSans-54"/>
      <use x="1109.412109" xlink:href="#DejaVuSans-41"/>
     </g>
    </g>
    <g id="line2d_32">
     <path d="M 979.590625 563.663125 
L 1019.590625 563.663125 
" style="fill:none;stroke:#9467bd;stroke-linecap:square;stroke-opacity:0.4;stroke-width:4;"/>
    </g>
    <g id="line2d_33"/>
    <g id="text_19">
     <!-- Fold 5(AUPR = 0.9677) -->
     <g transform="translate(1035.590625 570.663125)scale(0.2 -0.2)">
      <use xlink:href="#DejaVuSans-70"/>
      <use x="53.894531" xlink:href="#DejaVuSans-111"/>
      <use x="115.076172" xlink:href="#DejaVuSans-108"/>
      <use x="142.859375" xlink:href="#DejaVuSans-100"/>
      <use x="206.335938" xlink:href="#DejaVuSans-32"/>
      <use x="238.123047" xlink:href="#DejaVuSans-53"/>
      <use x="301.746094" xlink:href="#DejaVuSans-40"/>
      <use x="340.759766" xlink:href="#DejaVuSans-65"/>
      <use x="409.167969" xlink:href="#DejaVuSans-85"/>
      <use x="482.361328" xlink:href="#DejaVuSans-80"/>
      <use x="542.664062" xlink:href="#DejaVuSans-82"/>
      <use x="612.146484" xlink:href="#DejaVuSans-32"/>
      <use x="643.933594" xlink:href="#DejaVuSans-61"/>
      <use x="727.722656" xlink:href="#DejaVuSans-32"/>
      <use x="759.509766" xlink:href="#DejaVuSans-48"/>
      <use x="823.132812" xlink:href="#DejaVuSans-46"/>
      <use x="854.919922" xlink:href="#DejaVuSans-57"/>
      <use x="918.542969" xlink:href="#DejaVuSans-54"/>
      <use x="982.166016" xlink:href="#DejaVuSans-55"/>
      <use x="1045.789062" xlink:href="#DejaVuSans-55"/>
      <use x="1109.412109" xlink:href="#DejaVuSans-41"/>
     </g>
    </g>
    <g id="line2d_34">
     <path d="M 979.590625 593.019375 
L 1019.590625 593.019375 
" style="fill:none;stroke:#8c564b;stroke-linecap:square;stroke-opacity:0.4;stroke-width:4;"/>
    </g>
    <g id="line2d_35"/>
    <g id="text_20">
     <!-- Fold 6(AUPR = 0.9765) -->
     <g transform="translate(1035.590625 600.019375)scale(0.2 -0.2)">
      <use xlink:href="#DejaVuSans-70"/>
      <use x="53.894531" xlink:href="#DejaVuSans-111"/>
      <use x="115.076172" xlink:href="#DejaVuSans-108"/>
      <use x="142.859375" xlink:href="#DejaVuSans-100"/>
      <use x="206.335938" xlink:href="#DejaVuSans-32"/>
      <use x="238.123047" xlink:href="#DejaVuSans-54"/>
      <use x="301.746094" xlink:href="#DejaVuSans-40"/>
      <use x="340.759766" xlink:href="#DejaVuSans-65"/>
      <use x="409.167969" xlink:href="#DejaVuSans-85"/>
      <use x="482.361328" xlink:href="#DejaVuSans-80"/>
      <use x="542.664062" xlink:href="#DejaVuSans-82"/>
      <use x="612.146484" xlink:href="#DejaVuSans-32"/>
      <use x="643.933594" xlink:href="#DejaVuSans-61"/>
      <use x="727.722656" xlink:href="#DejaVuSans-32"/>
      <use x="759.509766" xlink:href="#DejaVuSans-48"/>
      <use x="823.132812" xlink:href="#DejaVuSans-46"/>
      <use x="854.919922" xlink:href="#DejaVuSans-57"/>
      <use x="918.542969" xlink:href="#DejaVuSans-55"/>
      <use x="982.166016" xlink:href="#DejaVuSans-54"/>
      <use x="1045.789062" xlink:href="#DejaVuSans-53"/>
      <use x="1109.412109" xlink:href="#DejaVuSans-41"/>
     </g>
    </g>
    <g id="line2d_36">
     <path d="M 979.590625 622.375625 
L 1019.590625 622.375625 
" style="fill:none;stroke:#e377c2;stroke-linecap:square;stroke-opacity:0.4;stroke-width:4;"/>
    </g>
    <g id="line2d_37"/>
    <g id="text_21">
     <!-- Fold 7(AUPR = 0.9659) -->
     <g transform="translate(1035.590625 629.375625)scale(0.2 -0.2)">
      <use xlink:href="#DejaVuSans-70"/>
      <use x="53.894531" xlink:href="#DejaVuSans-111"/>
      <use x="115.076172" xlink:href="#DejaVuSans-108"/>
      <use x="142.859375" xlink:href="#DejaVuSans-100"/>
      <use x="206.335938" xlink:href="#DejaVuSans-32"/>
      <use x="238.123047" xlink:href="#DejaVuSans-55"/>
      <use x="301.746094" xlink:href="#DejaVuSans-40"/>
      <use x="340.759766" xlink:href="#DejaVuSans-65"/>
      <use x="409.167969" xlink:href="#DejaVuSans-85"/>
      <use x="482.361328" xlink:href="#DejaVuSans-80"/>
      <use x="542.664062" xlink:href="#DejaVuSans-82"/>
      <use x="612.146484" xlink:href="#DejaVuSans-32"/>
      <use x="643.933594" xlink:href="#DejaVuSans-61"/>
      <use x="727.722656" xlink:href="#DejaVuSans-32"/>
      <use x="759.509766" xlink:href="#DejaVuSans-48"/>
      <use x="823.132812" xlink:href="#DejaVuSans-46"/>
      <use x="854.919922" xlink:href="#DejaVuSans-57"/>
      <use x="918.542969" xlink:href="#DejaVuSans-54"/>
      <use x="982.166016" xlink:href="#DejaVuSans-53"/>
      <use x="1045.789062" xlink:href="#DejaVuSans-57"/>
      <use x="1109.412109" xlink:href="#DejaVuSans-41"/>
     </g>
    </g>
    <g id="line2d_38">
     <path d="M 979.590625 651.731875 
L 1019.590625 651.731875 
" style="fill:none;stroke:#7f7f7f;stroke-linecap:square;stroke-opacity:0.4;stroke-width:4;"/>
    </g>
    <g id="line2d_39"/>
    <g id="text_22">
     <!-- Fold 8(AUPR = 0.9677) -->
     <g transform="translate(1035.590625 658.731875)scale(0.2 -0.2)">
      <use xlink:href="#DejaVuSans-70"/>
      <use x="53.894531" xlink:href="#DejaVuSans-111"/>
      <use x="115.076172" xlink:href="#DejaVuSans-108"/>
      <use x="142.859375" xlink:href="#DejaVuSans-100"/>
      <use x="206.335938" xlink:href="#DejaVuSans-32"/>
      <use x="238.123047" xlink:href="#DejaVuSans-56"/>
      <use x="301.746094" xlink:href="#DejaVuSans-40"/>
      <use x="340.759766" xlink:href="#DejaVuSans-65"/>
      <use x="409.167969" xlink:href="#DejaVuSans-85"/>
      <use x="482.361328" xlink:href="#DejaVuSans-80"/>
      <use x="542.664062" xlink:href="#DejaVuSans-82"/>
      <use x="612.146484" xlink:href="#DejaVuSans-32"/>
      <use x="643.933594" xlink:href="#DejaVuSans-61"/>
      <use x="727.722656" xlink:href="#DejaVuSans-32"/>
      <use x="759.509766" xlink:href="#DejaVuSans-48"/>
      <use x="823.132812" xlink:href="#DejaVuSans-46"/>
      <use x="854.919922" xlink:href="#DejaVuSans-57"/>
      <use x="918.542969" xlink:href="#DejaVuSans-54"/>
      <use x="982.166016" xlink:href="#DejaVuSans-55"/>
      <use x="1045.789062" xlink:href="#DejaVuSans-55"/>
      <use x="1109.412109" xlink:href="#DejaVuSans-41"/>
     </g>
    </g>
    <g id="line2d_40">
     <path d="M 979.590625 681.088125 
L 1019.590625 681.088125 
" style="fill:none;stroke:#bcbd22;stroke-linecap:square;stroke-opacity:0.4;stroke-width:4;"/>
    </g>
    <g id="line2d_41"/>
    <g id="text_23">
     <!-- Fold 9(AUPR = 0.9372) -->
     <g transform="translate(1035.590625 688.088125)scale(0.2 -0.2)">
      <use xlink:href="#DejaVuSans-70"/>
      <use x="53.894531" xlink:href="#DejaVuSans-111"/>
      <use x="115.076172" xlink:href="#DejaVuSans-108"/>
      <use x="142.859375" xlink:href="#DejaVuSans-100"/>
      <use x="206.335938" xlink:href="#DejaVuSans-32"/>
      <use x="238.123047" xlink:href="#DejaVuSans-57"/>
      <use x="301.746094" xlink:href="#DejaVuSans-40"/>
      <use x="340.759766" xlink:href="#DejaVuSans-65"/>
      <use x="409.167969" xlink:href="#DejaVuSans-85"/>
      <use x="482.361328" xlink:href="#DejaVuSans-80"/>
      <use x="542.664062" xlink:href="#DejaVuSans-82"/>
      <use x="612.146484" xlink:href="#DejaVuSans-32"/>
      <use x="643.933594" xlink:href="#DejaVuSans-61"/>
      <use x="727.722656" xlink:href="#DejaVuSans-32"/>
      <use x="759.509766" xlink:href="#DejaVuSans-48"/>
      <use x="823.132812" xlink:href="#DejaVuSans-46"/>
      <use x="854.919922" xlink:href="#DejaVuSans-57"/>
      <use x="918.542969" xlink:href="#DejaVuSans-51"/>
      <use x="982.166016" xlink:href="#DejaVuSans-55"/>
      <use x="1045.789062" xlink:href="#DejaVuSans-50"/>
      <use x="1109.412109" xlink:href="#DejaVuSans-41"/>
     </g>
    </g>
    <g id="line2d_42">
     <path d="M 979.590625 710.444375 
L 1019.590625 710.444375 
" style="fill:none;stroke:#17becf;stroke-linecap:square;stroke-opacity:0.4;stroke-width:4;"/>
    </g>
    <g id="line2d_43"/>
    <g id="text_24">
     <!-- Fold 10(AUPR = 0.9645) -->
     <g transform="translate(1035.590625 717.444375)scale(0.2 -0.2)">
      <use xlink:href="#DejaVuSans-70"/>
      <use x="53.894531" xlink:href="#DejaVuSans-111"/>
      <use x="115.076172" xlink:href="#DejaVuSans-108"/>
      <use x="142.859375" xlink:href="#DejaVuSans-100"/>
      <use x="206.335938" xlink:href="#DejaVuSans-32"/>
      <use x="238.123047" xlink:href="#DejaVuSans-49"/>
      <use x="301.746094" xlink:href="#DejaVuSans-48"/>
      <use x="365.369141" xlink:href="#DejaVuSans-40"/>
      <use x="404.382812" xlink:href="#DejaVuSans-65"/>
      <use x="472.791016" xlink:href="#DejaVuSans-85"/>
      <use x="545.984375" xlink:href="#DejaVuSans-80"/>
      <use x="606.287109" xlink:href="#DejaVuSans-82"/>
      <use x="675.769531" xlink:href="#DejaVuSans-32"/>
      <use x="707.556641" xlink:href="#DejaVuSans-61"/>
      <use x="791.345703" xlink:href="#DejaVuSans-32"/>
      <use x="823.132812" xlink:href="#DejaVuSans-48"/>
      <use x="886.755859" xlink:href="#DejaVuSans-46"/>
      <use x="918.542969" xlink:href="#DejaVuSans-57"/>
      <use x="982.166016" xlink:href="#DejaVuSans-54"/>
      <use x="1045.789062" xlink:href="#DejaVuSans-52"/>
      <use x="1109.412109" xlink:href="#DejaVuSans-53"/>
      <use x="1173.035156" xlink:href="#DejaVuSans-41"/>
     </g>
    </g>
    <g id="line2d_44">
     <path d="M 979.590625 739.800625 
L 1019.590625 739.800625 
" style="fill:none;stroke:#000080;stroke-linecap:square;stroke-opacity:0.8;stroke-width:3;"/>
    </g>
    <g id="line2d_45"/>
    <g id="text_25">
     <!-- Mean AUPR=0.9553 -->
     <g transform="translate(1035.590625 746.800625)scale(0.2 -0.2)">
      <defs>
       <path d="M 9.8125 72.90625 
L 24.515625 72.90625 
L 43.109375 23.296875 
L 61.8125 72.90625 
L 76.515625 72.90625 
L 76.515625 0 
L 66.890625 0 
L 66.890625 64.015625 
L 48.09375 14.015625 
L 38.1875 14.015625 
L 19.390625 64.015625 
L 19.390625 0 
L 9.8125 0 
z
" id="DejaVuSans-77"/>
      </defs>
      <use xlink:href="#DejaVuSans-77"/>
      <use x="86.279297" xlink:href="#DejaVuSans-101"/>
      <use x="147.802734" xlink:href="#DejaVuSans-97"/>
      <use x="209.082031" xlink:href="#DejaVuSans-110"/>
      <use x="272.460938" xlink:href="#DejaVuSans-32"/>
      <use x="304.248047" xlink:href="#DejaVuSans-65"/>
      <use x="372.65625" xlink:href="#DejaVuSans-85"/>
      <use x="445.849609" xlink:href="#DejaVuSans-80"/>
      <use x="506.152344" xlink:href="#DejaVuSans-82"/>
      <use x="575.634766" xlink:href="#DejaVuSans-61"/>
      <use x="659.423828" xlink:href="#DejaVuSans-48"/>
      <use x="723.046875" xlink:href="#DejaVuSans-46"/>
      <use x="754.833984" xlink:href="#DejaVuSans-57"/>
      <use x="818.457031" xlink:href="#DejaVuSans-53"/>
      <use x="882.080078" xlink:href="#DejaVuSans-53"/>
      <use x="945.703125" xlink:href="#DejaVuSans-51"/>
     </g>
    </g>
   </g>
  </g>
 </g>
 <defs>
  <clipPath id="pbed0a0ae14">
   <rect height="665.28" width="1116" x="180" y="103.68"/>
  </clipPath>
 </defs>
</svg>
