<?xml version="1.0" encoding="utf-8" standalone="no"?>
<!DOCTYPE svg PUBLIC "-//W3C//DTD SVG 1.1//EN"
  "http://www.w3.org/Graphics/SVG/1.1/DTD/svg11.dtd">
<!-- Created with matplotlib (https://matplotlib.org/) -->
<svg height="864pt" version="1.1" viewBox="0 0 1440 864" width="1440pt" xmlns="http://www.w3.org/2000/svg" xmlns:xlink="http://www.w3.org/1999/xlink">
 <metadata>
  <rdf:RDF xmlns:cc="http://creativecommons.org/ns#" xmlns:dc="http://purl.org/dc/elements/1.1/" xmlns:rdf="http://www.w3.org/1999/02/22-rdf-syntax-ns#">
   <cc:Work>
    <dc:type rdf:resource="http://purl.org/dc/dcmitype/StillImage"/>
    <dc:date>2024-05-18T20:17:48.838346</dc:date>
    <dc:format>image/svg+xml</dc:format>
    <dc:creator>
     <cc:Agent>
      <dc:title>Matplotlib v3.3.4, https://matplotlib.org/</dc:title>
     </cc:Agent>
    </dc:creator>
   </cc:Work>
  </rdf:RDF>
 </metadata>
 <defs>
  <style type="text/css">*{stroke-linecap:butt;stroke-linejoin:round;}</style>
 </defs>
 <g id="figure_1">
  <g id="patch_1">
   <path d="M 0 864 
L 1440 864 
L 1440 0 
L 0 0 
z
" style="fill:#ffffff;"/>
  </g>
  <g id="axes_1">
   <g id="patch_2">
    <path d="M 180 768.96 
L 1296 768.96 
L 1296 103.68 
L 180 103.68 
z
" style="fill:#ffffff;"/>
   </g>
   <g id="matplotlib.axis_1">
    <g id="xtick_1">
     <g id="line2d_1">
      <defs>
       <path d="M 0 0 
L 0 3.5 
" id="mf55f8559f6" style="stroke:#000000;stroke-width:0.8;"/>
      </defs>
      <g>
       <use style="stroke:#000000;stroke-width:0.8;" x="230.727273" xlink:href="#mf55f8559f6" y="768.96"/>
      </g>
     </g>
     <g id="text_1">
      <!-- 0.0 -->
      <g transform="translate(214.824148 791.156875)scale(0.2 -0.2)">
       <defs>
        <path d="M 31.78125 66.40625 
Q 24.171875 66.40625 20.328125 58.90625 
Q 16.5 51.421875 16.5 36.375 
Q 16.5 21.390625 20.328125 13.890625 
Q 24.171875 6.390625 31.78125 6.390625 
Q 39.453125 6.390625 43.28125 13.890625 
Q 47.125 21.390625 47.125 36.375 
Q 47.125 51.421875 43.28125 58.90625 
Q 39.453125 66.40625 31.78125 66.40625 
z
M 31.78125 74.21875 
Q 44.046875 74.21875 50.515625 64.515625 
Q 56.984375 54.828125 56.984375 36.375 
Q 56.984375 17.96875 50.515625 8.265625 
Q 44.046875 -1.421875 31.78125 -1.421875 
Q 19.53125 -1.421875 13.0625 8.265625 
Q 6.59375 17.96875 6.59375 36.375 
Q 6.59375 54.828125 13.0625 64.515625 
Q 19.53125 74.21875 31.78125 74.21875 
z
" id="DejaVuSans-48"/>
        <path d="M 10.6875 12.40625 
L 21 12.40625 
L 21 0 
L 10.6875 0 
z
" id="DejaVuSans-46"/>
       </defs>
       <use xlink:href="#DejaVuSans-48"/>
       <use x="63.623047" xlink:href="#DejaVuSans-46"/>
       <use x="95.410156" xlink:href="#DejaVuSans-48"/>
      </g>
     </g>
    </g>
    <g id="xtick_2">
     <g id="line2d_2">
      <g>
       <use style="stroke:#000000;stroke-width:0.8;" x="433.636364" xlink:href="#mf55f8559f6" y="768.96"/>
      </g>
     </g>
     <g id="text_2">
      <!-- 0.2 -->
      <g transform="translate(417.733239 791.156875)scale(0.2 -0.2)">
       <defs>
        <path d="M 19.1875 8.296875 
L 53.609375 8.296875 
L 53.609375 0 
L 7.328125 0 
L 7.328125 8.296875 
Q 12.9375 14.109375 22.625 23.890625 
Q 32.328125 33.6875 34.8125 36.53125 
Q 39.546875 41.84375 41.421875 45.53125 
Q 43.3125 49.21875 43.3125 52.78125 
Q 43.3125 58.59375 39.234375 62.25 
Q 35.15625 65.921875 28.609375 65.921875 
Q 23.96875 65.921875 18.8125 64.3125 
Q 13.671875 62.703125 7.8125 59.421875 
L 7.8125 69.390625 
Q 13.765625 71.78125 18.9375 73 
Q 24.125 74.21875 28.421875 74.21875 
Q 39.75 74.21875 46.484375 68.546875 
Q 53.21875 62.890625 53.21875 53.421875 
Q 53.21875 48.921875 51.53125 44.890625 
Q 49.859375 40.875 45.40625 35.40625 
Q 44.1875 33.984375 37.640625 27.21875 
Q 31.109375 20.453125 19.1875 8.296875 
z
" id="DejaVuSans-50"/>
       </defs>
       <use xlink:href="#DejaVuSans-48"/>
       <use x="63.623047" xlink:href="#DejaVuSans-46"/>
       <use x="95.410156" xlink:href="#DejaVuSans-50"/>
      </g>
     </g>
    </g>
    <g id="xtick_3">
     <g id="line2d_3">
      <g>
       <use style="stroke:#000000;stroke-width:0.8;" x="636.545455" xlink:href="#mf55f8559f6" y="768.96"/>
      </g>
     </g>
     <g id="text_3">
      <!-- 0.4 -->
      <g transform="translate(620.64233 791.156875)scale(0.2 -0.2)">
       <defs>
        <path d="M 37.796875 64.3125 
L 12.890625 25.390625 
L 37.796875 25.390625 
z
M 35.203125 72.90625 
L 47.609375 72.90625 
L 47.609375 25.390625 
L 58.015625 25.390625 
L 58.015625 17.1875 
L 47.609375 17.1875 
L 47.609375 0 
L 37.796875 0 
L 37.796875 17.1875 
L 4.890625 17.1875 
L 4.890625 26.703125 
z
" id="DejaVuSans-52"/>
       </defs>
       <use xlink:href="#DejaVuSans-48"/>
       <use x="63.623047" xlink:href="#DejaVuSans-46"/>
       <use x="95.410156" xlink:href="#DejaVuSans-52"/>
      </g>
     </g>
    </g>
    <g id="xtick_4">
     <g id="line2d_4">
      <g>
       <use style="stroke:#000000;stroke-width:0.8;" x="839.454545" xlink:href="#mf55f8559f6" y="768.96"/>
      </g>
     </g>
     <g id="text_4">
      <!-- 0.6 -->
      <g transform="translate(823.55142 791.156875)scale(0.2 -0.2)">
       <defs>
        <path d="M 33.015625 40.375 
Q 26.375 40.375 22.484375 35.828125 
Q 18.609375 31.296875 18.609375 23.390625 
Q 18.609375 15.53125 22.484375 10.953125 
Q 26.375 6.390625 33.015625 6.390625 
Q 39.65625 6.390625 43.53125 10.953125 
Q 47.40625 15.53125 47.40625 23.390625 
Q 47.40625 31.296875 43.53125 35.828125 
Q 39.65625 40.375 33.015625 40.375 
z
M 52.59375 71.296875 
L 52.59375 62.3125 
Q 48.875 64.0625 45.09375 64.984375 
Q 41.3125 65.921875 37.59375 65.921875 
Q 27.828125 65.921875 22.671875 59.328125 
Q 17.53125 52.734375 16.796875 39.40625 
Q 19.671875 43.65625 24.015625 45.921875 
Q 28.375 48.1875 33.59375 48.1875 
Q 44.578125 48.1875 50.953125 41.515625 
Q 57.328125 34.859375 57.328125 23.390625 
Q 57.328125 12.15625 50.6875 5.359375 
Q 44.046875 -1.421875 33.015625 -1.421875 
Q 20.359375 -1.421875 13.671875 8.265625 
Q 6.984375 17.96875 6.984375 36.375 
Q 6.984375 53.65625 15.1875 63.9375 
Q 23.390625 74.21875 37.203125 74.21875 
Q 40.921875 74.21875 44.703125 73.484375 
Q 48.484375 72.75 52.59375 71.296875 
z
" id="DejaVuSans-54"/>
       </defs>
       <use xlink:href="#DejaVuSans-48"/>
       <use x="63.623047" xlink:href="#DejaVuSans-46"/>
       <use x="95.410156" xlink:href="#DejaVuSans-54"/>
      </g>
     </g>
    </g>
    <g id="xtick_5">
     <g id="line2d_5">
      <g>
       <use style="stroke:#000000;stroke-width:0.8;" x="1042.363636" xlink:href="#mf55f8559f6" y="768.96"/>
      </g>
     </g>
     <g id="text_5">
      <!-- 0.8 -->
      <g transform="translate(1026.460511 791.156875)scale(0.2 -0.2)">
       <defs>
        <path d="M 31.78125 34.625 
Q 24.75 34.625 20.71875 30.859375 
Q 16.703125 27.09375 16.703125 20.515625 
Q 16.703125 13.921875 20.71875 10.15625 
Q 24.75 6.390625 31.78125 6.390625 
Q 38.8125 6.390625 42.859375 10.171875 
Q 46.921875 13.96875 46.921875 20.515625 
Q 46.921875 27.09375 42.890625 30.859375 
Q 38.875 34.625 31.78125 34.625 
z
M 21.921875 38.8125 
Q 15.578125 40.375 12.03125 44.71875 
Q 8.5 49.078125 8.5 55.328125 
Q 8.5 64.0625 14.71875 69.140625 
Q 20.953125 74.21875 31.78125 74.21875 
Q 42.671875 74.21875 48.875 69.140625 
Q 55.078125 64.0625 55.078125 55.328125 
Q 55.078125 49.078125 51.53125 44.71875 
Q 48 40.375 41.703125 38.8125 
Q 48.828125 37.15625 52.796875 32.3125 
Q 56.78125 27.484375 56.78125 20.515625 
Q 56.78125 9.90625 50.3125 4.234375 
Q 43.84375 -1.421875 31.78125 -1.421875 
Q 19.734375 -1.421875 13.25 4.234375 
Q 6.78125 9.90625 6.78125 20.515625 
Q 6.78125 27.484375 10.78125 32.3125 
Q 14.796875 37.15625 21.921875 38.8125 
z
M 18.3125 54.390625 
Q 18.3125 48.734375 21.84375 45.5625 
Q 25.390625 42.390625 31.78125 42.390625 
Q 38.140625 42.390625 41.71875 45.5625 
Q 45.3125 48.734375 45.3125 54.390625 
Q 45.3125 60.0625 41.71875 63.234375 
Q 38.140625 66.40625 31.78125 66.40625 
Q 25.390625 66.40625 21.84375 63.234375 
Q 18.3125 60.0625 18.3125 54.390625 
z
" id="DejaVuSans-56"/>
       </defs>
       <use xlink:href="#DejaVuSans-48"/>
       <use x="63.623047" xlink:href="#DejaVuSans-46"/>
       <use x="95.410156" xlink:href="#DejaVuSans-56"/>
      </g>
     </g>
    </g>
    <g id="xtick_6">
     <g id="line2d_6">
      <g>
       <use style="stroke:#000000;stroke-width:0.8;" x="1245.272727" xlink:href="#mf55f8559f6" y="768.96"/>
      </g>
     </g>
     <g id="text_6">
      <!-- 1.0 -->
      <g transform="translate(1229.369602 791.156875)scale(0.2 -0.2)">
       <defs>
        <path d="M 12.40625 8.296875 
L 28.515625 8.296875 
L 28.515625 63.921875 
L 10.984375 60.40625 
L 10.984375 69.390625 
L 28.421875 72.90625 
L 38.28125 72.90625 
L 38.28125 8.296875 
L 54.390625 8.296875 
L 54.390625 0 
L 12.40625 0 
z
" id="DejaVuSans-49"/>
       </defs>
       <use xlink:href="#DejaVuSans-49"/>
       <use x="63.623047" xlink:href="#DejaVuSans-46"/>
       <use x="95.410156" xlink:href="#DejaVuSans-48"/>
      </g>
     </g>
    </g>
    <g id="text_7">
     <!-- False Positive Rate -->
     <g transform="translate(621.833984 818.312344)scale(0.25 -0.25)">
      <defs>
       <path d="M 9.8125 72.90625 
L 51.703125 72.90625 
L 51.703125 64.59375 
L 19.671875 64.59375 
L 19.671875 43.109375 
L 48.578125 43.109375 
L 48.578125 34.8125 
L 19.671875 34.8125 
L 19.671875 0 
L 9.8125 0 
z
" id="DejaVuSans-70"/>
       <path d="M 34.28125 27.484375 
Q 23.390625 27.484375 19.1875 25 
Q 14.984375 22.515625 14.984375 16.5 
Q 14.984375 11.71875 18.140625 8.90625 
Q 21.296875 6.109375 26.703125 6.109375 
Q 34.1875 6.109375 38.703125 11.40625 
Q 43.21875 16.703125 43.21875 25.484375 
L 43.21875 27.484375 
z
M 52.203125 31.203125 
L 52.203125 0 
L 43.21875 0 
L 43.21875 8.296875 
Q 40.140625 3.328125 35.546875 0.953125 
Q 30.953125 -1.421875 24.3125 -1.421875 
Q 15.921875 -1.421875 10.953125 3.296875 
Q 6 8.015625 6 15.921875 
Q 6 25.140625 12.171875 29.828125 
Q 18.359375 34.515625 30.609375 34.515625 
L 43.21875 34.515625 
L 43.21875 35.40625 
Q 43.21875 41.609375 39.140625 45 
Q 35.0625 48.390625 27.6875 48.390625 
Q 23 48.390625 18.546875 47.265625 
Q 14.109375 46.140625 10.015625 43.890625 
L 10.015625 52.203125 
Q 14.9375 54.109375 19.578125 55.046875 
Q 24.21875 56 28.609375 56 
Q 40.484375 56 46.34375 49.84375 
Q 52.203125 43.703125 52.203125 31.203125 
z
" id="DejaVuSans-97"/>
       <path d="M 9.421875 75.984375 
L 18.40625 75.984375 
L 18.40625 0 
L 9.421875 0 
z
" id="DejaVuSans-108"/>
       <path d="M 44.28125 53.078125 
L 44.28125 44.578125 
Q 40.484375 46.53125 36.375 47.5 
Q 32.28125 48.484375 27.875 48.484375 
Q 21.1875 48.484375 17.84375 46.4375 
Q 14.5 44.390625 14.5 40.28125 
Q 14.5 37.15625 16.890625 35.375 
Q 19.28125 33.59375 26.515625 31.984375 
L 29.59375 31.296875 
Q 39.15625 29.25 43.1875 25.515625 
Q 47.21875 21.78125 47.21875 15.09375 
Q 47.21875 7.46875 41.1875 3.015625 
Q 35.15625 -1.421875 24.609375 -1.421875 
Q 20.21875 -1.421875 15.453125 -0.5625 
Q 10.6875 0.296875 5.421875 2 
L 5.421875 11.28125 
Q 10.40625 8.6875 15.234375 7.390625 
Q 20.0625 6.109375 24.8125 6.109375 
Q 31.15625 6.109375 34.5625 8.28125 
Q 37.984375 10.453125 37.984375 14.40625 
Q 37.984375 18.0625 35.515625 20.015625 
Q 33.0625 21.96875 24.703125 23.78125 
L 21.578125 24.515625 
Q 13.234375 26.265625 9.515625 29.90625 
Q 5.8125 33.546875 5.8125 39.890625 
Q 5.8125 47.609375 11.28125 51.796875 
Q 16.75 56 26.8125 56 
Q 31.78125 56 36.171875 55.265625 
Q 40.578125 54.546875 44.28125 53.078125 
z
" id="DejaVuSans-115"/>
       <path d="M 56.203125 29.59375 
L 56.203125 25.203125 
L 14.890625 25.203125 
Q 15.484375 15.921875 20.484375 11.0625 
Q 25.484375 6.203125 34.421875 6.203125 
Q 39.59375 6.203125 44.453125 7.46875 
Q 49.3125 8.734375 54.109375 11.28125 
L 54.109375 2.78125 
Q 49.265625 0.734375 44.1875 -0.34375 
Q 39.109375 -1.421875 33.890625 -1.421875 
Q 20.796875 -1.421875 13.15625 6.1875 
Q 5.515625 13.8125 5.515625 26.8125 
Q 5.515625 40.234375 12.765625 48.109375 
Q 20.015625 56 32.328125 56 
Q 43.359375 56 49.78125 48.890625 
Q 56.203125 41.796875 56.203125 29.59375 
z
M 47.21875 32.234375 
Q 47.125 39.59375 43.09375 43.984375 
Q 39.0625 48.390625 32.421875 48.390625 
Q 24.90625 48.390625 20.390625 44.140625 
Q 15.875 39.890625 15.1875 32.171875 
z
" id="DejaVuSans-101"/>
       <path id="DejaVuSans-32"/>
       <path d="M 19.671875 64.796875 
L 19.671875 37.40625 
L 32.078125 37.40625 
Q 38.96875 37.40625 42.71875 40.96875 
Q 46.484375 44.53125 46.484375 51.125 
Q 46.484375 57.671875 42.71875 61.234375 
Q 38.96875 64.796875 32.078125 64.796875 
z
M 9.8125 72.90625 
L 32.078125 72.90625 
Q 44.34375 72.90625 50.609375 67.359375 
Q 56.890625 61.8125 56.890625 51.125 
Q 56.890625 40.328125 50.609375 34.8125 
Q 44.34375 29.296875 32.078125 29.296875 
L 19.671875 29.296875 
L 19.671875 0 
L 9.8125 0 
z
" id="DejaVuSans-80"/>
       <path d="M 30.609375 48.390625 
Q 23.390625 48.390625 19.1875 42.75 
Q 14.984375 37.109375 14.984375 27.296875 
Q 14.984375 17.484375 19.15625 11.84375 
Q 23.34375 6.203125 30.609375 6.203125 
Q 37.796875 6.203125 41.984375 11.859375 
Q 46.1875 17.53125 46.1875 27.296875 
Q 46.1875 37.015625 41.984375 42.703125 
Q 37.796875 48.390625 30.609375 48.390625 
z
M 30.609375 56 
Q 42.328125 56 49.015625 48.375 
Q 55.71875 40.765625 55.71875 27.296875 
Q 55.71875 13.875 49.015625 6.21875 
Q 42.328125 -1.421875 30.609375 -1.421875 
Q 18.84375 -1.421875 12.171875 6.21875 
Q 5.515625 13.875 5.515625 27.296875 
Q 5.515625 40.765625 12.171875 48.375 
Q 18.84375 56 30.609375 56 
z
" id="DejaVuSans-111"/>
       <path d="M 9.421875 54.6875 
L 18.40625 54.6875 
L 18.40625 0 
L 9.421875 0 
z
M 9.421875 75.984375 
L 18.40625 75.984375 
L 18.40625 64.59375 
L 9.421875 64.59375 
z
" id="DejaVuSans-105"/>
       <path d="M 18.3125 70.21875 
L 18.3125 54.6875 
L 36.8125 54.6875 
L 36.8125 47.703125 
L 18.3125 47.703125 
L 18.3125 18.015625 
Q 18.3125 11.328125 20.140625 9.421875 
Q 21.96875 7.515625 27.59375 7.515625 
L 36.8125 7.515625 
L 36.8125 0 
L 27.59375 0 
Q 17.1875 0 13.234375 3.875 
Q 9.28125 7.765625 9.28125 18.015625 
L 9.28125 47.703125 
L 2.6875 47.703125 
L 2.6875 54.6875 
L 9.28125 54.6875 
L 9.28125 70.21875 
z
" id="DejaVuSans-116"/>
       <path d="M 2.984375 54.6875 
L 12.5 54.6875 
L 29.59375 8.796875 
L 46.6875 54.6875 
L 56.203125 54.6875 
L 35.6875 0 
L 23.484375 0 
z
" id="DejaVuSans-118"/>
       <path d="M 44.390625 34.1875 
Q 47.5625 33.109375 50.5625 29.59375 
Q 53.5625 26.078125 56.59375 19.921875 
L 66.609375 0 
L 56 0 
L 46.6875 18.703125 
Q 43.0625 26.03125 39.671875 28.421875 
Q 36.28125 30.8125 30.421875 30.8125 
L 19.671875 30.8125 
L 19.671875 0 
L 9.8125 0 
L 9.8125 72.90625 
L 32.078125 72.90625 
Q 44.578125 72.90625 50.734375 67.671875 
Q 56.890625 62.453125 56.890625 51.90625 
Q 56.890625 45.015625 53.6875 40.46875 
Q 50.484375 35.9375 44.390625 34.1875 
z
M 19.671875 64.796875 
L 19.671875 38.921875 
L 32.078125 38.921875 
Q 39.203125 38.921875 42.84375 42.21875 
Q 46.484375 45.515625 46.484375 51.90625 
Q 46.484375 58.296875 42.84375 61.546875 
Q 39.203125 64.796875 32.078125 64.796875 
z
" id="DejaVuSans-82"/>
      </defs>
      <use xlink:href="#DejaVuSans-70"/>
      <use x="48.394531" xlink:href="#DejaVuSans-97"/>
      <use x="109.673828" xlink:href="#DejaVuSans-108"/>
      <use x="137.457031" xlink:href="#DejaVuSans-115"/>
      <use x="189.556641" xlink:href="#DejaVuSans-101"/>
      <use x="251.080078" xlink:href="#DejaVuSans-32"/>
      <use x="282.867188" xlink:href="#DejaVuSans-80"/>
      <use x="339.544922" xlink:href="#DejaVuSans-111"/>
      <use x="400.726562" xlink:href="#DejaVuSans-115"/>
      <use x="452.826172" xlink:href="#DejaVuSans-105"/>
      <use x="480.609375" xlink:href="#DejaVuSans-116"/>
      <use x="519.818359" xlink:href="#DejaVuSans-105"/>
      <use x="547.601562" xlink:href="#DejaVuSans-118"/>
      <use x="606.78125" xlink:href="#DejaVuSans-101"/>
      <use x="668.304688" xlink:href="#DejaVuSans-32"/>
      <use x="700.091797" xlink:href="#DejaVuSans-82"/>
      <use x="767.324219" xlink:href="#DejaVuSans-97"/>
      <use x="828.603516" xlink:href="#DejaVuSans-116"/>
      <use x="867.8125" xlink:href="#DejaVuSans-101"/>
     </g>
    </g>
   </g>
   <g id="matplotlib.axis_2">
    <g id="ytick_1">
     <g id="line2d_7">
      <defs>
       <path d="M 0 0 
L -3.5 0 
" id="mb751ea6ca1" style="stroke:#000000;stroke-width:0.8;"/>
      </defs>
      <g>
       <use style="stroke:#000000;stroke-width:0.8;" x="180" xlink:href="#mb751ea6ca1" y="738.72"/>
      </g>
     </g>
     <g id="text_8">
      <!-- 0.0 -->
      <g transform="translate(141.19375 746.318437)scale(0.2 -0.2)">
       <use xlink:href="#DejaVuSans-48"/>
       <use x="63.623047" xlink:href="#DejaVuSans-46"/>
       <use x="95.410156" xlink:href="#DejaVuSans-48"/>
      </g>
     </g>
    </g>
    <g id="ytick_2">
     <g id="line2d_8">
      <g>
       <use style="stroke:#000000;stroke-width:0.8;" x="180" xlink:href="#mb751ea6ca1" y="617.76"/>
      </g>
     </g>
     <g id="text_9">
      <!-- 0.2 -->
      <g transform="translate(141.19375 625.358438)scale(0.2 -0.2)">
       <use xlink:href="#DejaVuSans-48"/>
       <use x="63.623047" xlink:href="#DejaVuSans-46"/>
       <use x="95.410156" xlink:href="#DejaVuSans-50"/>
      </g>
     </g>
    </g>
    <g id="ytick_3">
     <g id="line2d_9">
      <g>
       <use style="stroke:#000000;stroke-width:0.8;" x="180" xlink:href="#mb751ea6ca1" y="496.8"/>
      </g>
     </g>
     <g id="text_10">
      <!-- 0.4 -->
      <g transform="translate(141.19375 504.398437)scale(0.2 -0.2)">
       <use xlink:href="#DejaVuSans-48"/>
       <use x="63.623047" xlink:href="#DejaVuSans-46"/>
       <use x="95.410156" xlink:href="#DejaVuSans-52"/>
      </g>
     </g>
    </g>
    <g id="ytick_4">
     <g id="line2d_10">
      <g>
       <use style="stroke:#000000;stroke-width:0.8;" x="180" xlink:href="#mb751ea6ca1" y="375.84"/>
      </g>
     </g>
     <g id="text_11">
      <!-- 0.6 -->
      <g transform="translate(141.19375 383.438437)scale(0.2 -0.2)">
       <use xlink:href="#DejaVuSans-48"/>
       <use x="63.623047" xlink:href="#DejaVuSans-46"/>
       <use x="95.410156" xlink:href="#DejaVuSans-54"/>
      </g>
     </g>
    </g>
    <g id="ytick_5">
     <g id="line2d_11">
      <g>
       <use style="stroke:#000000;stroke-width:0.8;" x="180" xlink:href="#mb751ea6ca1" y="254.88"/>
      </g>
     </g>
     <g id="text_12">
      <!-- 0.8 -->
      <g transform="translate(141.19375 262.478437)scale(0.2 -0.2)">
       <use xlink:href="#DejaVuSans-48"/>
       <use x="63.623047" xlink:href="#DejaVuSans-46"/>
       <use x="95.410156" xlink:href="#DejaVuSans-56"/>
      </g>
     </g>
    </g>
    <g id="ytick_6">
     <g id="line2d_12">
      <g>
       <use style="stroke:#000000;stroke-width:0.8;" x="180" xlink:href="#mb751ea6ca1" y="133.92"/>
      </g>
     </g>
     <g id="text_13">
      <!-- 1.0 -->
      <g transform="translate(141.19375 141.518437)scale(0.2 -0.2)">
       <use xlink:href="#DejaVuSans-49"/>
       <use x="63.623047" xlink:href="#DejaVuSans-46"/>
       <use x="95.410156" xlink:href="#DejaVuSans-48"/>
      </g>
     </g>
    </g>
    <g id="text_14">
     <!-- True Positive Rate -->
     <g transform="translate(131.994531 547.644219)rotate(-90)scale(0.25 -0.25)">
      <defs>
       <path d="M -0.296875 72.90625 
L 61.375 72.90625 
L 61.375 64.59375 
L 35.5 64.59375 
L 35.5 0 
L 25.59375 0 
L 25.59375 64.59375 
L -0.296875 64.59375 
z
" id="DejaVuSans-84"/>
       <path d="M 41.109375 46.296875 
Q 39.59375 47.171875 37.8125 47.578125 
Q 36.03125 48 33.890625 48 
Q 26.265625 48 22.1875 43.046875 
Q 18.109375 38.09375 18.109375 28.8125 
L 18.109375 0 
L 9.078125 0 
L 9.078125 54.6875 
L 18.109375 54.6875 
L 18.109375 46.1875 
Q 20.953125 51.171875 25.484375 53.578125 
Q 30.03125 56 36.53125 56 
Q 37.453125 56 38.578125 55.875 
Q 39.703125 55.765625 41.0625 55.515625 
z
" id="DejaVuSans-114"/>
       <path d="M 8.5 21.578125 
L 8.5 54.6875 
L 17.484375 54.6875 
L 17.484375 21.921875 
Q 17.484375 14.15625 20.5 10.265625 
Q 23.53125 6.390625 29.59375 6.390625 
Q 36.859375 6.390625 41.078125 11.03125 
Q 45.3125 15.671875 45.3125 23.6875 
L 45.3125 54.6875 
L 54.296875 54.6875 
L 54.296875 0 
L 45.3125 0 
L 45.3125 8.40625 
Q 42.046875 3.421875 37.71875 1 
Q 33.40625 -1.421875 27.6875 -1.421875 
Q 18.265625 -1.421875 13.375 4.4375 
Q 8.5 10.296875 8.5 21.578125 
z
M 31.109375 56 
z
" id="DejaVuSans-117"/>
      </defs>
      <use xlink:href="#DejaVuSans-84"/>
      <use x="46.333984" xlink:href="#DejaVuSans-114"/>
      <use x="87.447266" xlink:href="#DejaVuSans-117"/>
      <use x="150.826172" xlink:href="#DejaVuSans-101"/>
      <use x="212.349609" xlink:href="#DejaVuSans-32"/>
      <use x="244.136719" xlink:href="#DejaVuSans-80"/>
      <use x="300.814453" xlink:href="#DejaVuSans-111"/>
      <use x="361.996094" xlink:href="#DejaVuSans-115"/>
      <use x="414.095703" xlink:href="#DejaVuSans-105"/>
      <use x="441.878906" xlink:href="#DejaVuSans-116"/>
      <use x="481.087891" xlink:href="#DejaVuSans-105"/>
      <use x="508.871094" xlink:href="#DejaVuSans-118"/>
      <use x="568.050781" xlink:href="#DejaVuSans-101"/>
      <use x="629.574219" xlink:href="#DejaVuSans-32"/>
      <use x="661.361328" xlink:href="#DejaVuSans-82"/>
      <use x="728.59375" xlink:href="#DejaVuSans-97"/>
      <use x="789.873047" xlink:href="#DejaVuSans-116"/>
      <use x="829.082031" xlink:href="#DejaVuSans-101"/>
     </g>
    </g>
   </g>
   <g id="line2d_13">
    <path clip-path="url(#p3c91f71a92)" d="M 230.727273 738.72 
L 230.727273 734.986667 
L 230.727273 611.786667 
L 236.989899 611.786667 
L 236.989899 589.386667 
L 243.252525 589.386667 
L 243.252525 525.92 
L 249.515152 525.92 
L 249.515152 462.453333 
L 255.777778 462.453333 
L 255.777778 413.92 
L 262.040404 413.92 
L 262.040404 320.586667 
L 268.30303 320.586667 
L 268.30303 313.12 
L 274.565657 313.12 
L 274.565657 305.653333 
L 280.828283 305.653333 
L 280.828283 301.92 
L 287.090909 301.92 
L 287.090909 298.186667 
L 293.353535 298.186667 
L 293.353535 283.253333 
L 299.616162 283.253333 
L 299.616162 279.52 
L 305.878788 279.52 
L 305.878788 268.32 
L 312.141414 268.32 
L 312.141414 264.586667 
L 318.40404 264.586667 
L 318.40404 253.386667 
L 343.454545 253.386667 
L 343.454545 245.92 
L 355.979798 245.92 
L 355.979798 242.186667 
L 362.242424 242.186667 
L 362.242424 238.453333 
L 368.505051 238.453333 
L 368.505051 234.72 
L 374.767677 234.72 
L 374.767677 227.253333 
L 381.030303 227.253333 
L 381.030303 208.586667 
L 399.818182 208.586667 
L 399.818182 204.853333 
L 406.080808 204.853333 
L 406.080808 193.653333 
L 412.343434 193.653333 
L 412.343434 189.92 
L 424.868687 189.92 
L 424.868687 182.453333 
L 449.919192 182.453333 
L 449.919192 178.72 
L 456.181818 178.72 
L 456.181818 174.986667 
L 518.808081 174.986667 
L 518.808081 167.52 
L 537.59596 167.52 
L 537.59596 163.786667 
L 568.909091 163.786667 
L 568.909091 160.053333 
L 619.010101 160.053333 
L 619.010101 156.32 
L 625.272727 156.32 
L 625.272727 152.586667 
L 637.79798 152.586667 
L 637.79798 148.853333 
L 662.848485 148.853333 
L 662.848485 145.12 
L 731.737374 145.12 
L 731.737374 141.386667 
L 775.575758 141.386667 
L 775.575758 137.653333 
L 944.666667 137.653333 
L 944.666667 133.92 
L 1245.272727 133.92 
" style="fill:none;stroke:#1f77b4;stroke-linecap:square;stroke-opacity:0.3;stroke-width:4;"/>
   </g>
   <g id="line2d_14">
    <path clip-path="url(#p3c91f71a92)" d="M 230.727273 738.72 
L 236.989899 738.72 
L 236.989899 645.386667 
L 243.252525 645.386667 
L 243.252525 581.92 
L 249.515152 581.92 
L 249.515152 537.12 
L 255.777778 537.12 
L 255.777778 462.453333 
L 262.040404 462.453333 
L 262.040404 458.72 
L 268.30303 458.72 
L 268.30303 440.053333 
L 274.565657 440.053333 
L 274.565657 432.586667 
L 280.828283 432.586667 
L 280.828283 425.12 
L 287.090909 425.12 
L 287.090909 395.253333 
L 293.353535 395.253333 
L 293.353535 346.72 
L 305.878788 346.72 
L 305.878788 342.986667 
L 312.141414 342.986667 
L 312.141414 339.253333 
L 318.40404 339.253333 
L 318.40404 335.52 
L 337.191919 335.52 
L 337.191919 328.053333 
L 343.454545 328.053333 
L 343.454545 305.653333 
L 349.717172 305.653333 
L 349.717172 301.92 
L 362.242424 301.92 
L 362.242424 283.253333 
L 368.505051 283.253333 
L 368.505051 272.053333 
L 374.767677 272.053333 
L 374.767677 268.32 
L 381.030303 268.32 
L 381.030303 249.653333 
L 387.292929 249.653333 
L 387.292929 245.92 
L 393.555556 245.92 
L 393.555556 238.453333 
L 399.818182 238.453333 
L 399.818182 234.72 
L 406.080808 234.72 
L 406.080808 230.986667 
L 412.343434 230.986667 
L 412.343434 223.52 
L 424.868687 223.52 
L 424.868687 216.053333 
L 431.131313 216.053333 
L 431.131313 212.32 
L 443.656566 212.32 
L 443.656566 208.586667 
L 462.444444 208.586667 
L 462.444444 201.12 
L 468.707071 201.12 
L 468.707071 197.386667 
L 487.494949 197.386667 
L 487.494949 186.186667 
L 500.020202 186.186667 
L 500.020202 182.453333 
L 512.545455 182.453333 
L 512.545455 178.72 
L 531.333333 178.72 
L 531.333333 174.986667 
L 550.121212 174.986667 
L 550.121212 171.253333 
L 556.383838 171.253333 
L 556.383838 167.52 
L 575.171717 167.52 
L 575.171717 160.053333 
L 612.747475 160.053333 
L 612.747475 156.32 
L 619.010101 156.32 
L 619.010101 152.586667 
L 644.060606 152.586667 
L 644.060606 148.853333 
L 656.585859 148.853333 
L 656.585859 141.386667 
L 675.373737 141.386667 
L 675.373737 137.653333 
L 763.050505 137.653333 
L 763.050505 133.92 
L 1245.272727 133.92 
" style="fill:none;stroke:#ff7f0e;stroke-linecap:square;stroke-opacity:0.3;stroke-width:4;"/>
   </g>
   <g id="line2d_15">
    <path clip-path="url(#p3c91f71a92)" d="M 230.727273 738.72 
L 230.727273 734.986667 
L 230.727273 555.786667 
L 236.989899 555.786667 
L 236.989899 421.386667 
L 243.252525 421.386667 
L 243.252525 398.986667 
L 249.515152 398.986667 
L 249.515152 328.053333 
L 268.30303 328.053333 
L 268.30303 294.453333 
L 274.565657 294.453333 
L 274.565657 286.986667 
L 280.828283 286.986667 
L 280.828283 283.253333 
L 287.090909 283.253333 
L 287.090909 275.786667 
L 293.353535 275.786667 
L 293.353535 272.053333 
L 305.878788 272.053333 
L 305.878788 264.586667 
L 312.141414 264.586667 
L 312.141414 245.92 
L 318.40404 245.92 
L 318.40404 234.72 
L 330.929293 234.72 
L 330.929293 227.253333 
L 337.191919 227.253333 
L 337.191919 216.053333 
L 362.242424 216.053333 
L 362.242424 212.32 
L 368.505051 212.32 
L 368.505051 204.853333 
L 393.555556 204.853333 
L 393.555556 197.386667 
L 399.818182 197.386667 
L 399.818182 189.92 
L 406.080808 189.92 
L 406.080808 171.253333 
L 418.606061 171.253333 
L 418.606061 167.52 
L 462.444444 167.52 
L 462.444444 160.053333 
L 474.969697 160.053333 
L 474.969697 156.32 
L 512.545455 156.32 
L 512.545455 141.386667 
L 562.646465 141.386667 
L 562.646465 137.653333 
L 806.888889 137.653333 
L 806.888889 133.92 
L 1245.272727 133.92 
" style="fill:none;stroke:#2ca02c;stroke-linecap:square;stroke-opacity:0.3;stroke-width:4;"/>
   </g>
   <g id="line2d_16">
    <path clip-path="url(#p3c91f71a92)" d="M 230.727273 738.72 
L 230.727273 734.986667 
L 230.727273 559.52 
L 236.989899 559.52 
L 236.989899 428.853333 
L 243.252525 428.853333 
L 243.252525 417.653333 
L 249.515152 417.653333 
L 249.515152 384.053333 
L 255.777778 384.053333 
L 255.777778 376.586667 
L 262.040404 376.586667 
L 262.040404 372.853333 
L 268.30303 372.853333 
L 268.30303 346.72 
L 274.565657 346.72 
L 274.565657 335.52 
L 280.828283 335.52 
L 280.828283 324.32 
L 287.090909 324.32 
L 287.090909 309.386667 
L 293.353535 309.386667 
L 293.353535 286.986667 
L 305.878788 286.986667 
L 305.878788 260.853333 
L 312.141414 260.853333 
L 312.141414 257.12 
L 318.40404 257.12 
L 318.40404 238.453333 
L 324.666667 238.453333 
L 324.666667 234.72 
L 337.191919 234.72 
L 337.191919 219.786667 
L 343.454545 219.786667 
L 343.454545 216.053333 
L 362.242424 216.053333 
L 362.242424 212.32 
L 368.505051 212.32 
L 368.505051 182.453333 
L 393.555556 182.453333 
L 393.555556 174.986667 
L 406.080808 174.986667 
L 406.080808 171.253333 
L 412.343434 171.253333 
L 412.343434 167.52 
L 418.606061 167.52 
L 418.606061 163.786667 
L 431.131313 163.786667 
L 431.131313 156.32 
L 437.393939 156.32 
L 437.393939 152.586667 
L 449.919192 152.586667 
L 449.919192 148.853333 
L 474.969697 148.853333 
L 474.969697 145.12 
L 531.333333 145.12 
L 531.333333 137.653333 
L 593.959596 137.653333 
L 593.959596 133.92 
L 1245.272727 133.92 
" style="fill:none;stroke:#d62728;stroke-linecap:square;stroke-opacity:0.3;stroke-width:4;"/>
   </g>
   <g id="line2d_17">
    <path clip-path="url(#p3c91f71a92)" d="M 230.727273 738.72 
L 230.727273 734.986667 
L 230.727273 537.12 
L 236.989899 537.12 
L 236.989899 488.586667 
L 243.252525 488.586667 
L 243.252525 421.386667 
L 249.515152 421.386667 
L 249.515152 398.986667 
L 255.777778 398.986667 
L 255.777778 376.586667 
L 262.040404 376.586667 
L 262.040404 354.186667 
L 268.30303 354.186667 
L 268.30303 294.453333 
L 280.828283 294.453333 
L 280.828283 238.453333 
L 287.090909 238.453333 
L 287.090909 230.986667 
L 293.353535 230.986667 
L 293.353535 227.253333 
L 318.40404 227.253333 
L 318.40404 216.053333 
L 324.666667 216.053333 
L 324.666667 208.586667 
L 343.454545 208.586667 
L 343.454545 197.386667 
L 368.505051 197.386667 
L 368.505051 193.653333 
L 381.030303 193.653333 
L 381.030303 182.453333 
L 418.606061 182.453333 
L 418.606061 174.986667 
L 431.131313 174.986667 
L 431.131313 171.253333 
L 437.393939 171.253333 
L 437.393939 167.52 
L 456.181818 167.52 
L 456.181818 163.786667 
L 487.494949 163.786667 
L 487.494949 160.053333 
L 493.757576 160.053333 
L 493.757576 156.32 
L 537.59596 156.32 
L 537.59596 152.586667 
L 587.69697 152.586667 
L 587.69697 145.12 
L 593.959596 145.12 
L 593.959596 141.386667 
L 656.585859 141.386667 
L 656.585859 137.653333 
L 831.939394 137.653333 
L 831.939394 133.92 
L 1245.272727 133.92 
" style="fill:none;stroke:#9467bd;stroke-linecap:square;stroke-opacity:0.3;stroke-width:4;"/>
   </g>
   <g id="line2d_18">
    <path clip-path="url(#p3c91f71a92)" d="M 230.727273 738.72 
L 230.727273 734.986667 
L 230.727273 514.72 
L 236.989899 514.72 
L 236.989899 443.786667 
L 243.252525 443.786667 
L 243.252525 372.853333 
L 249.515152 372.853333 
L 249.515152 365.386667 
L 255.777778 365.386667 
L 255.777778 313.12 
L 262.040404 313.12 
L 262.040404 264.586667 
L 268.30303 264.586667 
L 268.30303 260.853333 
L 274.565657 260.853333 
L 274.565657 257.12 
L 280.828283 257.12 
L 280.828283 245.92 
L 287.090909 245.92 
L 287.090909 234.72 
L 293.353535 234.72 
L 293.353535 219.786667 
L 299.616162 219.786667 
L 299.616162 208.586667 
L 330.929293 208.586667 
L 330.929293 204.853333 
L 337.191919 204.853333 
L 337.191919 197.386667 
L 343.454545 197.386667 
L 343.454545 182.453333 
L 349.717172 182.453333 
L 349.717172 178.72 
L 362.242424 178.72 
L 362.242424 174.986667 
L 381.030303 174.986667 
L 381.030303 171.253333 
L 406.080808 171.253333 
L 406.080808 167.52 
L 431.131313 167.52 
L 431.131313 163.786667 
L 462.444444 163.786667 
L 462.444444 160.053333 
L 493.757576 160.053333 
L 493.757576 156.32 
L 518.808081 156.32 
L 518.808081 152.586667 
L 525.070707 152.586667 
L 525.070707 148.853333 
L 637.79798 148.853333 
L 637.79798 145.12 
L 644.060606 145.12 
L 644.060606 141.386667 
L 656.585859 141.386667 
L 656.585859 137.653333 
L 725.474747 137.653333 
L 725.474747 133.92 
L 1245.272727 133.92 
" style="fill:none;stroke:#8c564b;stroke-linecap:square;stroke-opacity:0.3;stroke-width:4;"/>
   </g>
   <g id="line2d_19">
    <path clip-path="url(#p3c91f71a92)" d="M 230.727273 738.72 
L 230.727273 734.963478 
L 230.727273 648.563478 
L 236.989899 648.563478 
L 236.989899 577.189565 
L 243.252525 577.189565 
L 243.252525 453.224348 
L 249.515152 453.224348 
L 249.515152 404.389565 
L 255.777778 404.389565 
L 255.777778 344.285217 
L 262.040404 344.285217 
L 262.040404 336.772174 
L 268.30303 336.772174 
L 268.30303 295.450435 
L 274.565657 295.450435 
L 274.565657 291.693913 
L 280.828283 291.693913 
L 280.828283 227.833043 
L 287.090909 227.833043 
L 287.090909 212.806957 
L 305.878788 212.806957 
L 305.878788 209.050435 
L 318.40404 209.050435 
L 318.40404 197.78087 
L 324.666667 197.78087 
L 324.666667 194.024348 
L 343.454545 194.024348 
L 343.454545 190.267826 
L 349.717172 190.267826 
L 349.717172 186.511304 
L 355.979798 186.511304 
L 355.979798 182.754783 
L 362.242424 182.754783 
L 362.242424 175.241739 
L 374.767677 175.241739 
L 374.767677 171.485217 
L 381.030303 171.485217 
L 381.030303 167.728696 
L 399.818182 167.728696 
L 399.818182 163.972174 
L 406.080808 163.972174 
L 406.080808 156.45913 
L 443.656566 156.45913 
L 443.656566 152.702609 
L 481.232323 152.702609 
L 481.232323 148.946087 
L 487.494949 148.946087 
L 487.494949 145.189565 
L 531.333333 145.189565 
L 531.333333 141.433043 
L 556.383838 141.433043 
L 556.383838 137.676522 
L 831.939394 137.676522 
L 831.939394 133.92 
L 1245.272727 133.92 
" style="fill:none;stroke:#e377c2;stroke-linecap:square;stroke-opacity:0.3;stroke-width:4;"/>
   </g>
   <g id="line2d_20">
    <path clip-path="url(#p3c91f71a92)" d="M 230.727273 738.72 
L 230.727273 734.963478 
L 230.727273 494.546087 
L 236.989899 494.546087 
L 236.989899 468.250435 
L 243.252525 468.250435 
L 243.252525 419.415652 
L 249.515152 419.415652 
L 249.515152 415.65913 
L 255.777778 415.65913 
L 255.777778 404.389565 
L 268.30303 404.389565 
L 268.30303 351.798261 
L 274.565657 351.798261 
L 274.565657 321.746087 
L 287.090909 321.746087 
L 287.090909 284.18087 
L 293.353535 284.18087 
L 293.353535 280.424348 
L 299.616162 280.424348 
L 299.616162 276.667826 
L 305.878788 276.667826 
L 305.878788 272.911304 
L 312.141414 272.911304 
L 312.141414 231.589565 
L 324.666667 231.589565 
L 324.666667 224.076522 
L 330.929293 224.076522 
L 330.929293 212.806957 
L 337.191919 212.806957 
L 337.191919 201.537391 
L 355.979798 201.537391 
L 355.979798 178.998261 
L 362.242424 178.998261 
L 362.242424 167.728696 
L 374.767677 167.728696 
L 374.767677 163.972174 
L 393.555556 163.972174 
L 393.555556 160.215652 
L 412.343434 160.215652 
L 412.343434 156.45913 
L 424.868687 156.45913 
L 424.868687 152.702609 
L 456.181818 152.702609 
L 456.181818 148.946087 
L 500.020202 148.946087 
L 500.020202 145.189565 
L 518.808081 145.189565 
L 518.808081 141.433043 
L 556.383838 141.433043 
L 556.383838 137.676522 
L 769.313131 137.676522 
L 769.313131 133.92 
L 1088.707071 133.92 
L 1101.232323 133.92 
L 1245.272727 133.92 
" style="fill:none;stroke:#7f7f7f;stroke-linecap:square;stroke-opacity:0.3;stroke-width:4;"/>
   </g>
   <g id="line2d_21">
    <path clip-path="url(#p3c91f71a92)" d="M 230.727273 738.72 
L 230.727273 734.986667 
L 230.727273 686.453333 
L 237.028797 686.453333 
L 237.028797 608.053333 
L 237.028797 600.586667 
L 237.028797 574.453333 
L 237.028797 566.986667 
L 237.028797 563.253333 
L 243.330322 563.253333 
L 243.330322 514.72 
L 249.631846 514.72 
L 249.631846 496.053333 
L 255.933371 496.053333 
L 255.933371 492.32 
L 262.234896 492.32 
L 262.234896 473.653333 
L 268.53642 473.653333 
L 268.53642 451.253333 
L 274.837945 451.253333 
L 274.837945 425.12 
L 281.139469 425.12 
L 281.139469 342.986667 
L 287.440994 342.986667 
L 287.440994 294.453333 
L 293.742518 294.453333 
L 293.742518 290.72 
L 300.044043 290.72 
L 300.044043 268.32 
L 306.345567 268.32 
L 306.345567 257.12 
L 318.948617 257.12 
L 318.948617 253.386667 
L 325.250141 253.386667 
L 325.250141 249.653333 
L 344.154715 249.653333 
L 344.154715 212.32 
L 356.757764 212.32 
L 356.757764 204.853333 
L 394.566911 204.853333 
L 394.566911 201.12 
L 400.868436 201.12 
L 400.868436 197.386667 
L 407.16996 197.386667 
L 407.16996 193.653333 
L 426.074534 193.653333 
L 426.074534 189.92 
L 432.376059 189.92 
L 432.376059 182.453333 
L 438.677583 182.453333 
L 438.677583 178.72 
L 457.582157 178.72 
L 457.582157 174.986667 
L 463.883682 174.986667 
L 463.883682 171.253333 
L 501.692829 171.253333 
L 501.692829 167.52 
L 507.994353 167.52 
L 507.994353 163.786667 
L 514.295878 163.786667 
L 514.295878 160.053333 
L 539.501976 160.053333 
L 539.501976 156.32 
L 583.612648 156.32 
L 583.612648 152.586667 
L 589.914173 152.586667 
L 589.914173 148.853333 
L 596.215697 148.853333 
L 596.215697 145.12 
L 652.929418 145.12 
L 652.929418 141.386667 
L 678.135517 141.386667 
L 678.135517 137.653333 
L 734.849238 137.653333 
L 734.849238 133.92 
L 1245.272727 133.92 
" style="fill:none;stroke:#bcbd22;stroke-linecap:square;stroke-opacity:0.3;stroke-width:4;"/>
   </g>
   <g id="line2d_22">
    <path clip-path="url(#p3c91f71a92)" d="M 230.727273 738.72 
L 230.727273 734.986667 
L 230.727273 481.12 
L 237.028797 481.12 
L 237.028797 432.586667 
L 243.330322 432.586667 
L 243.330322 425.12 
L 249.631846 425.12 
L 249.631846 406.453333 
L 268.53642 406.453333 
L 268.53642 387.786667 
L 274.837945 387.786667 
L 274.837945 380.32 
L 281.139469 380.32 
L 281.139469 331.786667 
L 287.440994 331.786667 
L 287.440994 298.186667 
L 293.742518 298.186667 
L 293.742518 294.453333 
L 300.044043 294.453333 
L 300.044043 290.72 
L 306.345567 290.72 
L 306.345567 279.52 
L 312.647092 279.52 
L 312.647092 230.986667 
L 318.948617 230.986667 
L 318.948617 223.52 
L 331.551666 223.52 
L 331.551666 216.053333 
L 337.85319 216.053333 
L 337.85319 208.586667 
L 350.456239 208.586667 
L 350.456239 201.12 
L 356.757764 201.12 
L 356.757764 197.386667 
L 369.360813 197.386667 
L 369.360813 189.92 
L 375.662338 189.92 
L 375.662338 178.72 
L 394.566911 178.72 
L 394.566911 171.253333 
L 426.074534 171.253333 
L 426.074534 167.52 
L 432.376059 167.52 
L 432.376059 163.786667 
L 457.582157 163.786667 
L 457.582157 160.053333 
L 476.486731 160.053333 
L 476.486731 156.32 
L 489.08978 156.32 
L 489.08978 152.586667 
L 501.692829 152.586667 
L 501.692829 148.853333 
L 520.597403 148.853333 
L 520.597403 145.12 
L 539.501976 145.12 
L 539.501976 141.386667 
L 558.40655 141.386667 
L 558.40655 137.653333 
L 760.055336 137.653333 
L 760.055336 133.92 
L 1245.272727 133.92 
" style="fill:none;stroke:#17becf;stroke-linecap:square;stroke-opacity:0.3;stroke-width:4;"/>
   </g>
   <g id="line2d_23">
    <path clip-path="url(#p3c91f71a92)" d="M 230.727273 738.72 
L 240.975207 505.866667 
L 251.22314 419.86087 
L 261.471074 391.816812 
L 271.719008 343.594203 
L 281.966942 304.333913 
L 292.214876 283.394783 
L 302.46281 266.963478 
L 312.710744 247.146667 
L 322.958678 239.29971 
L 333.206612 233.685797 
L 343.454545 221.356522 
L 353.702479 215.754203 
L 363.950413 206.393043 
L 374.198347 200.046377 
L 384.446281 191.452754 
L 394.694215 187.343768 
L 404.942149 185.101449 
L 415.190083 178.001159 
L 425.438017 174.638841 
L 435.68595 170.905507 
L 445.933884 169.036522 
L 456.181818 167.167536 
L 466.429752 164.18087 
L 476.677686 162.687536 
L 486.92562 162.311884 
L 497.173554 159.322899 
L 507.421488 157.827246 
L 517.669421 155.213913 
L 527.917355 152.971594 
L 538.165289 150.729275 
L 548.413223 149.982609 
L 558.661157 148.111304 
L 568.909091 147.364638 
L 579.157025 146.617971 
L 589.404959 145.497971 
L 599.652893 144.004638 
L 609.900826 144.004638 
L 620.14876 142.884638 
L 630.396694 142.511304 
L 640.644628 141.764638 
L 650.892562 141.017971 
L 661.140496 139.151304 
L 671.38843 138.777971 
L 681.636364 138.031304 
L 691.884298 138.031304 
L 702.132231 138.031304 
L 712.380165 138.031304 
L 722.628099 138.031304 
L 732.876033 137.284638 
L 743.123967 136.911304 
L 753.371901 136.911304 
L 763.619835 136.164638 
L 773.867769 135.788986 
L 784.115702 135.415652 
L 794.363636 135.415652 
L 804.61157 135.415652 
L 814.859504 135.042319 
L 825.107438 135.042319 
L 835.355372 134.293333 
L 845.603306 134.293333 
L 855.85124 134.293333 
L 866.099174 134.293333 
L 876.347107 134.293333 
L 886.595041 134.293333 
L 896.842975 134.293333 
L 907.090909 134.293333 
L 917.338843 134.293333 
L 927.586777 134.293333 
L 937.834711 134.293333 
L 948.082645 133.92 
L 958.330579 133.92 
L 968.578512 133.92 
L 978.826446 133.92 
L 989.07438 133.92 
L 999.322314 133.92 
L 1009.570248 133.92 
L 1019.818182 133.92 
L 1030.066116 133.92 
L 1040.31405 133.92 
L 1050.561983 133.92 
L 1060.809917 133.92 
L 1071.057851 133.92 
L 1081.305785 133.92 
L 1091.553719 133.92 
L 1101.801653 133.92 
L 1112.049587 133.92 
L 1122.297521 133.92 
L 1132.545455 133.92 
L 1142.793388 133.92 
L 1153.041322 133.92 
L 1163.289256 133.92 
L 1173.53719 133.92 
L 1183.785124 133.92 
L 1194.033058 133.92 
L 1204.280992 133.92 
L 1214.528926 133.92 
L 1224.77686 133.92 
L 1235.024793 133.92 
L 1245.272727 133.92 
" style="fill:none;stroke:#000080;stroke-linecap:square;stroke-opacity:0.8;stroke-width:3;"/>
   </g>
   <g id="patch_3">
    <path d="M 180 768.96 
L 180 103.68 
" style="fill:none;stroke:#000000;stroke-linecap:square;stroke-linejoin:miter;stroke-width:0.8;"/>
   </g>
   <g id="patch_4">
    <path d="M 1296 768.96 
L 1296 103.68 
" style="fill:none;stroke:#000000;stroke-linecap:square;stroke-linejoin:miter;stroke-width:0.8;"/>
   </g>
   <g id="patch_5">
    <path d="M 180 768.96 
L 1296 768.96 
" style="fill:none;stroke:#000000;stroke-linecap:square;stroke-linejoin:miter;stroke-width:0.8;"/>
   </g>
   <g id="patch_6">
    <path d="M 180 103.68 
L 1296 103.68 
" style="fill:none;stroke:#000000;stroke-linecap:square;stroke-linejoin:miter;stroke-width:0.8;"/>
   </g>
   <g id="legend_1">
    <g id="patch_7">
     <path d="M 951.584375 758.96 
L 1282 758.96 
Q 1286 758.96 1286 754.96 
L 1286 434.04125 
Q 1286 430.04125 1282 430.04125 
L 951.584375 430.04125 
Q 947.584375 430.04125 947.584375 434.04125 
L 947.584375 754.96 
Q 947.584375 758.96 951.584375 758.96 
z
" style="fill:#ffffff;opacity:0.8;stroke:#cccccc;stroke-linejoin:miter;"/>
    </g>
    <g id="line2d_24">
     <path d="M 955.584375 446.238125 
L 995.584375 446.238125 
" style="fill:none;stroke:#1f77b4;stroke-linecap:square;stroke-opacity:0.3;stroke-width:4;"/>
    </g>
    <g id="line2d_25"/>
    <g id="text_15">
     <!-- Fold 1 (AUROC = 0.9442) -->
     <g transform="translate(1011.584375 453.238125)scale(0.2 -0.2)">
      <defs>
       <path d="M 45.40625 46.390625 
L 45.40625 75.984375 
L 54.390625 75.984375 
L 54.390625 0 
L 45.40625 0 
L 45.40625 8.203125 
Q 42.578125 3.328125 38.25 0.953125 
Q 33.9375 -1.421875 27.875 -1.421875 
Q 17.96875 -1.421875 11.734375 6.484375 
Q 5.515625 14.40625 5.515625 27.296875 
Q 5.515625 40.1875 11.734375 48.09375 
Q 17.96875 56 27.875 56 
Q 33.9375 56 38.25 53.625 
Q 42.578125 51.265625 45.40625 46.390625 
z
M 14.796875 27.296875 
Q 14.796875 17.390625 18.875 11.75 
Q 22.953125 6.109375 30.078125 6.109375 
Q 37.203125 6.109375 41.296875 11.75 
Q 45.40625 17.390625 45.40625 27.296875 
Q 45.40625 37.203125 41.296875 42.84375 
Q 37.203125 48.484375 30.078125 48.484375 
Q 22.953125 48.484375 18.875 42.84375 
Q 14.796875 37.203125 14.796875 27.296875 
z
" id="DejaVuSans-100"/>
       <path d="M 31 75.875 
Q 24.46875 64.65625 21.28125 53.65625 
Q 18.109375 42.671875 18.109375 31.390625 
Q 18.109375 20.125 21.3125 9.0625 
Q 24.515625 -2 31 -13.1875 
L 23.1875 -13.1875 
Q 15.875 -1.703125 12.234375 9.375 
Q 8.59375 20.453125 8.59375 31.390625 
Q 8.59375 42.28125 12.203125 53.3125 
Q 15.828125 64.359375 23.1875 75.875 
z
" id="DejaVuSans-40"/>
       <path d="M 34.1875 63.1875 
L 20.796875 26.90625 
L 47.609375 26.90625 
z
M 28.609375 72.90625 
L 39.796875 72.90625 
L 67.578125 0 
L 57.328125 0 
L 50.6875 18.703125 
L 17.828125 18.703125 
L 11.1875 0 
L 0.78125 0 
z
" id="DejaVuSans-65"/>
       <path d="M 8.6875 72.90625 
L 18.609375 72.90625 
L 18.609375 28.609375 
Q 18.609375 16.890625 22.84375 11.734375 
Q 27.09375 6.59375 36.625 6.59375 
Q 46.09375 6.59375 50.34375 11.734375 
Q 54.59375 16.890625 54.59375 28.609375 
L 54.59375 72.90625 
L 64.5 72.90625 
L 64.5 27.390625 
Q 64.5 13.140625 57.4375 5.859375 
Q 50.390625 -1.421875 36.625 -1.421875 
Q 22.796875 -1.421875 15.734375 5.859375 
Q 8.6875 13.140625 8.6875 27.390625 
z
" id="DejaVuSans-85"/>
       <path d="M 39.40625 66.21875 
Q 28.65625 66.21875 22.328125 58.203125 
Q 16.015625 50.203125 16.015625 36.375 
Q 16.015625 22.609375 22.328125 14.59375 
Q 28.65625 6.59375 39.40625 6.59375 
Q 50.140625 6.59375 56.421875 14.59375 
Q 62.703125 22.609375 62.703125 36.375 
Q 62.703125 50.203125 56.421875 58.203125 
Q 50.140625 66.21875 39.40625 66.21875 
z
M 39.40625 74.21875 
Q 54.734375 74.21875 63.90625 63.9375 
Q 73.09375 53.65625 73.09375 36.375 
Q 73.09375 19.140625 63.90625 8.859375 
Q 54.734375 -1.421875 39.40625 -1.421875 
Q 24.03125 -1.421875 14.8125 8.828125 
Q 5.609375 19.09375 5.609375 36.375 
Q 5.609375 53.65625 14.8125 63.9375 
Q 24.03125 74.21875 39.40625 74.21875 
z
" id="DejaVuSans-79"/>
       <path d="M 64.40625 67.28125 
L 64.40625 56.890625 
Q 59.421875 61.53125 53.78125 63.8125 
Q 48.140625 66.109375 41.796875 66.109375 
Q 29.296875 66.109375 22.65625 58.46875 
Q 16.015625 50.828125 16.015625 36.375 
Q 16.015625 21.96875 22.65625 14.328125 
Q 29.296875 6.6875 41.796875 6.6875 
Q 48.140625 6.6875 53.78125 8.984375 
Q 59.421875 11.28125 64.40625 15.921875 
L 64.40625 5.609375 
Q 59.234375 2.09375 53.4375 0.328125 
Q 47.65625 -1.421875 41.21875 -1.421875 
Q 24.65625 -1.421875 15.125 8.703125 
Q 5.609375 18.84375 5.609375 36.375 
Q 5.609375 53.953125 15.125 64.078125 
Q 24.65625 74.21875 41.21875 74.21875 
Q 47.75 74.21875 53.53125 72.484375 
Q 59.328125 70.75 64.40625 67.28125 
z
" id="DejaVuSans-67"/>
       <path d="M 10.59375 45.40625 
L 73.1875 45.40625 
L 73.1875 37.203125 
L 10.59375 37.203125 
z
M 10.59375 25.484375 
L 73.1875 25.484375 
L 73.1875 17.1875 
L 10.59375 17.1875 
z
" id="DejaVuSans-61"/>
       <path d="M 10.984375 1.515625 
L 10.984375 10.5 
Q 14.703125 8.734375 18.5 7.8125 
Q 22.3125 6.890625 25.984375 6.890625 
Q 35.75 6.890625 40.890625 13.453125 
Q 46.046875 20.015625 46.78125 33.40625 
Q 43.953125 29.203125 39.59375 26.953125 
Q 35.25 24.703125 29.984375 24.703125 
Q 19.046875 24.703125 12.671875 31.3125 
Q 6.296875 37.9375 6.296875 49.421875 
Q 6.296875 60.640625 12.9375 67.421875 
Q 19.578125 74.21875 30.609375 74.21875 
Q 43.265625 74.21875 49.921875 64.515625 
Q 56.59375 54.828125 56.59375 36.375 
Q 56.59375 19.140625 48.40625 8.859375 
Q 40.234375 -1.421875 26.421875 -1.421875 
Q 22.703125 -1.421875 18.890625 -0.6875 
Q 15.09375 0.046875 10.984375 1.515625 
z
M 30.609375 32.421875 
Q 37.25 32.421875 41.125 36.953125 
Q 45.015625 41.5 45.015625 49.421875 
Q 45.015625 57.28125 41.125 61.84375 
Q 37.25 66.40625 30.609375 66.40625 
Q 23.96875 66.40625 20.09375 61.84375 
Q 16.21875 57.28125 16.21875 49.421875 
Q 16.21875 41.5 20.09375 36.953125 
Q 23.96875 32.421875 30.609375 32.421875 
z
" id="DejaVuSans-57"/>
       <path d="M 8.015625 75.875 
L 15.828125 75.875 
Q 23.140625 64.359375 26.78125 53.3125 
Q 30.421875 42.28125 30.421875 31.390625 
Q 30.421875 20.453125 26.78125 9.375 
Q 23.140625 -1.703125 15.828125 -13.1875 
L 8.015625 -13.1875 
Q 14.5 -2 17.703125 9.0625 
Q 20.90625 20.125 20.90625 31.390625 
Q 20.90625 42.671875 17.703125 53.65625 
Q 14.5 64.65625 8.015625 75.875 
z
" id="DejaVuSans-41"/>
      </defs>
      <use xlink:href="#DejaVuSans-70"/>
      <use x="53.894531" xlink:href="#DejaVuSans-111"/>
      <use x="115.076172" xlink:href="#DejaVuSans-108"/>
      <use x="142.859375" xlink:href="#DejaVuSans-100"/>
      <use x="206.335938" xlink:href="#DejaVuSans-32"/>
      <use x="238.123047" xlink:href="#DejaVuSans-49"/>
      <use x="301.746094" xlink:href="#DejaVuSans-32"/>
      <use x="333.533203" xlink:href="#DejaVuSans-40"/>
      <use x="372.546875" xlink:href="#DejaVuSans-65"/>
      <use x="440.955078" xlink:href="#DejaVuSans-85"/>
      <use x="514.148438" xlink:href="#DejaVuSans-82"/>
      <use x="583.630859" xlink:href="#DejaVuSans-79"/>
      <use x="662.341797" xlink:href="#DejaVuSans-67"/>
      <use x="732.166016" xlink:href="#DejaVuSans-32"/>
      <use x="763.953125" xlink:href="#DejaVuSans-61"/>
      <use x="847.742188" xlink:href="#DejaVuSans-32"/>
      <use x="879.529297" xlink:href="#DejaVuSans-48"/>
      <use x="943.152344" xlink:href="#DejaVuSans-46"/>
      <use x="974.939453" xlink:href="#DejaVuSans-57"/>
      <use x="1038.5625" xlink:href="#DejaVuSans-52"/>
      <use x="1102.185547" xlink:href="#DejaVuSans-52"/>
      <use x="1165.808594" xlink:href="#DejaVuSans-50"/>
      <use x="1229.431641" xlink:href="#DejaVuSans-41"/>
     </g>
    </g>
    <g id="line2d_26">
     <path d="M 955.584375 475.594375 
L 995.584375 475.594375 
" style="fill:none;stroke:#ff7f0e;stroke-linecap:square;stroke-opacity:0.3;stroke-width:4;"/>
    </g>
    <g id="line2d_27"/>
    <g id="text_16">
     <!-- Fold 2 (AUROC = 0.9209) -->
     <g transform="translate(1011.584375 482.594375)scale(0.2 -0.2)">
      <use xlink:href="#DejaVuSans-70"/>
      <use x="53.894531" xlink:href="#DejaVuSans-111"/>
      <use x="115.076172" xlink:href="#DejaVuSans-108"/>
      <use x="142.859375" xlink:href="#DejaVuSans-100"/>
      <use x="206.335938" xlink:href="#DejaVuSans-32"/>
      <use x="238.123047" xlink:href="#DejaVuSans-50"/>
      <use x="301.746094" xlink:href="#DejaVuSans-32"/>
      <use x="333.533203" xlink:href="#DejaVuSans-40"/>
      <use x="372.546875" xlink:href="#DejaVuSans-65"/>
      <use x="440.955078" xlink:href="#DejaVuSans-85"/>
      <use x="514.148438" xlink:href="#DejaVuSans-82"/>
      <use x="583.630859" xlink:href="#DejaVuSans-79"/>
      <use x="662.341797" xlink:href="#DejaVuSans-67"/>
      <use x="732.166016" xlink:href="#DejaVuSans-32"/>
      <use x="763.953125" xlink:href="#DejaVuSans-61"/>
      <use x="847.742188" xlink:href="#DejaVuSans-32"/>
      <use x="879.529297" xlink:href="#DejaVuSans-48"/>
      <use x="943.152344" xlink:href="#DejaVuSans-46"/>
      <use x="974.939453" xlink:href="#DejaVuSans-57"/>
      <use x="1038.5625" xlink:href="#DejaVuSans-50"/>
      <use x="1102.185547" xlink:href="#DejaVuSans-48"/>
      <use x="1165.808594" xlink:href="#DejaVuSans-57"/>
      <use x="1229.431641" xlink:href="#DejaVuSans-41"/>
     </g>
    </g>
    <g id="line2d_28">
     <path d="M 955.584375 504.950625 
L 995.584375 504.950625 
" style="fill:none;stroke:#2ca02c;stroke-linecap:square;stroke-opacity:0.3;stroke-width:4;"/>
    </g>
    <g id="line2d_29"/>
    <g id="text_17">
     <!-- Fold 3 (AUROC = 0.9642) -->
     <g transform="translate(1011.584375 511.950625)scale(0.2 -0.2)">
      <defs>
       <path d="M 40.578125 39.3125 
Q 47.65625 37.796875 51.625 33 
Q 55.609375 28.21875 55.609375 21.1875 
Q 55.609375 10.40625 48.1875 4.484375 
Q 40.765625 -1.421875 27.09375 -1.421875 
Q 22.515625 -1.421875 17.65625 -0.515625 
Q 12.796875 0.390625 7.625 2.203125 
L 7.625 11.71875 
Q 11.71875 9.328125 16.59375 8.109375 
Q 21.484375 6.890625 26.8125 6.890625 
Q 36.078125 6.890625 40.9375 10.546875 
Q 45.796875 14.203125 45.796875 21.1875 
Q 45.796875 27.640625 41.28125 31.265625 
Q 36.765625 34.90625 28.71875 34.90625 
L 20.21875 34.90625 
L 20.21875 43.015625 
L 29.109375 43.015625 
Q 36.375 43.015625 40.234375 45.921875 
Q 44.09375 48.828125 44.09375 54.296875 
Q 44.09375 59.90625 40.109375 62.90625 
Q 36.140625 65.921875 28.71875 65.921875 
Q 24.65625 65.921875 20.015625 65.03125 
Q 15.375 64.15625 9.8125 62.3125 
L 9.8125 71.09375 
Q 15.4375 72.65625 20.34375 73.4375 
Q 25.25 74.21875 29.59375 74.21875 
Q 40.828125 74.21875 47.359375 69.109375 
Q 53.90625 64.015625 53.90625 55.328125 
Q 53.90625 49.265625 50.4375 45.09375 
Q 46.96875 40.921875 40.578125 39.3125 
z
" id="DejaVuSans-51"/>
      </defs>
      <use xlink:href="#DejaVuSans-70"/>
      <use x="53.894531" xlink:href="#DejaVuSans-111"/>
      <use x="115.076172" xlink:href="#DejaVuSans-108"/>
      <use x="142.859375" xlink:href="#DejaVuSans-100"/>
      <use x="206.335938" xlink:href="#DejaVuSans-32"/>
      <use x="238.123047" xlink:href="#DejaVuSans-51"/>
      <use x="301.746094" xlink:href="#DejaVuSans-32"/>
      <use x="333.533203" xlink:href="#DejaVuSans-40"/>
      <use x="372.546875" xlink:href="#DejaVuSans-65"/>
      <use x="440.955078" xlink:href="#DejaVuSans-85"/>
      <use x="514.148438" xlink:href="#DejaVuSans-82"/>
      <use x="583.630859" xlink:href="#DejaVuSans-79"/>
      <use x="662.341797" xlink:href="#DejaVuSans-67"/>
      <use x="732.166016" xlink:href="#DejaVuSans-32"/>
      <use x="763.953125" xlink:href="#DejaVuSans-61"/>
      <use x="847.742188" xlink:href="#DejaVuSans-32"/>
      <use x="879.529297" xlink:href="#DejaVuSans-48"/>
      <use x="943.152344" xlink:href="#DejaVuSans-46"/>
      <use x="974.939453" xlink:href="#DejaVuSans-57"/>
      <use x="1038.5625" xlink:href="#DejaVuSans-54"/>
      <use x="1102.185547" xlink:href="#DejaVuSans-52"/>
      <use x="1165.808594" xlink:href="#DejaVuSans-50"/>
      <use x="1229.431641" xlink:href="#DejaVuSans-41"/>
     </g>
    </g>
    <g id="line2d_30">
     <path d="M 955.584375 534.306875 
L 995.584375 534.306875 
" style="fill:none;stroke:#d62728;stroke-linecap:square;stroke-opacity:0.3;stroke-width:4;"/>
    </g>
    <g id="line2d_31"/>
    <g id="text_18">
     <!-- Fold 4 (AUROC = 0.9645) -->
     <g transform="translate(1011.584375 541.306875)scale(0.2 -0.2)">
      <defs>
       <path d="M 10.796875 72.90625 
L 49.515625 72.90625 
L 49.515625 64.59375 
L 19.828125 64.59375 
L 19.828125 46.734375 
Q 21.96875 47.46875 24.109375 47.828125 
Q 26.265625 48.1875 28.421875 48.1875 
Q 40.625 48.1875 47.75 41.5 
Q 54.890625 34.8125 54.890625 23.390625 
Q 54.890625 11.625 47.5625 5.09375 
Q 40.234375 -1.421875 26.90625 -1.421875 
Q 22.3125 -1.421875 17.546875 -0.640625 
Q 12.796875 0.140625 7.71875 1.703125 
L 7.71875 11.625 
Q 12.109375 9.234375 16.796875 8.0625 
Q 21.484375 6.890625 26.703125 6.890625 
Q 35.15625 6.890625 40.078125 11.328125 
Q 45.015625 15.765625 45.015625 23.390625 
Q 45.015625 31 40.078125 35.4375 
Q 35.15625 39.890625 26.703125 39.890625 
Q 22.75 39.890625 18.8125 39.015625 
Q 14.890625 38.140625 10.796875 36.28125 
z
" id="DejaVuSans-53"/>
      </defs>
      <use xlink:href="#DejaVuSans-70"/>
      <use x="53.894531" xlink:href="#DejaVuSans-111"/>
      <use x="115.076172" xlink:href="#DejaVuSans-108"/>
      <use x="142.859375" xlink:href="#DejaVuSans-100"/>
      <use x="206.335938" xlink:href="#DejaVuSans-32"/>
      <use x="238.123047" xlink:href="#DejaVuSans-52"/>
      <use x="301.746094" xlink:href="#DejaVuSans-32"/>
      <use x="333.533203" xlink:href="#DejaVuSans-40"/>
      <use x="372.546875" xlink:href="#DejaVuSans-65"/>
      <use x="440.955078" xlink:href="#DejaVuSans-85"/>
      <use x="514.148438" xlink:href="#DejaVuSans-82"/>
      <use x="583.630859" xlink:href="#DejaVuSans-79"/>
      <use x="662.341797" xlink:href="#DejaVuSans-67"/>
      <use x="732.166016" xlink:href="#DejaVuSans-32"/>
      <use x="763.953125" xlink:href="#DejaVuSans-61"/>
      <use x="847.742188" xlink:href="#DejaVuSans-32"/>
      <use x="879.529297" xlink:href="#DejaVuSans-48"/>
      <use x="943.152344" xlink:href="#DejaVuSans-46"/>
      <use x="974.939453" xlink:href="#DejaVuSans-57"/>
      <use x="1038.5625" xlink:href="#DejaVuSans-54"/>
      <use x="1102.185547" xlink:href="#DejaVuSans-52"/>
      <use x="1165.808594" xlink:href="#DejaVuSans-53"/>
      <use x="1229.431641" xlink:href="#DejaVuSans-41"/>
     </g>
    </g>
    <g id="line2d_32">
     <path d="M 955.584375 563.663125 
L 995.584375 563.663125 
" style="fill:none;stroke:#9467bd;stroke-linecap:square;stroke-opacity:0.3;stroke-width:4;"/>
    </g>
    <g id="line2d_33"/>
    <g id="text_19">
     <!-- Fold 5 (AUROC = 0.9637) -->
     <g transform="translate(1011.584375 570.663125)scale(0.2 -0.2)">
      <defs>
       <path d="M 8.203125 72.90625 
L 55.078125 72.90625 
L 55.078125 68.703125 
L 28.609375 0 
L 18.3125 0 
L 43.21875 64.59375 
L 8.203125 64.59375 
z
" id="DejaVuSans-55"/>
      </defs>
      <use xlink:href="#DejaVuSans-70"/>
      <use x="53.894531" xlink:href="#DejaVuSans-111"/>
      <use x="115.076172" xlink:href="#DejaVuSans-108"/>
      <use x="142.859375" xlink:href="#DejaVuSans-100"/>
      <use x="206.335938" xlink:href="#DejaVuSans-32"/>
      <use x="238.123047" xlink:href="#DejaVuSans-53"/>
      <use x="301.746094" xlink:href="#DejaVuSans-32"/>
      <use x="333.533203" xlink:href="#DejaVuSans-40"/>
      <use x="372.546875" xlink:href="#DejaVuSans-65"/>
      <use x="440.955078" xlink:href="#DejaVuSans-85"/>
      <use x="514.148438" xlink:href="#DejaVuSans-82"/>
      <use x="583.630859" xlink:href="#DejaVuSans-79"/>
      <use x="662.341797" xlink:href="#DejaVuSans-67"/>
      <use x="732.166016" xlink:href="#DejaVuSans-32"/>
      <use x="763.953125" xlink:href="#DejaVuSans-61"/>
      <use x="847.742188" xlink:href="#DejaVuSans-32"/>
      <use x="879.529297" xlink:href="#DejaVuSans-48"/>
      <use x="943.152344" xlink:href="#DejaVuSans-46"/>
      <use x="974.939453" xlink:href="#DejaVuSans-57"/>
      <use x="1038.5625" xlink:href="#DejaVuSans-54"/>
      <use x="1102.185547" xlink:href="#DejaVuSans-51"/>
      <use x="1165.808594" xlink:href="#DejaVuSans-55"/>
      <use x="1229.431641" xlink:href="#DejaVuSans-41"/>
     </g>
    </g>
    <g id="line2d_34">
     <path d="M 955.584375 593.019375 
L 995.584375 593.019375 
" style="fill:none;stroke:#8c564b;stroke-linecap:square;stroke-opacity:0.3;stroke-width:4;"/>
    </g>
    <g id="line2d_35"/>
    <g id="text_20">
     <!-- Fold 6 (AUROC = 0.9712) -->
     <g transform="translate(1011.584375 600.019375)scale(0.2 -0.2)">
      <use xlink:href="#DejaVuSans-70"/>
      <use x="53.894531" xlink:href="#DejaVuSans-111"/>
      <use x="115.076172" xlink:href="#DejaVuSans-108"/>
      <use x="142.859375" xlink:href="#DejaVuSans-100"/>
      <use x="206.335938" xlink:href="#DejaVuSans-32"/>
      <use x="238.123047" xlink:href="#DejaVuSans-54"/>
      <use x="301.746094" xlink:href="#DejaVuSans-32"/>
      <use x="333.533203" xlink:href="#DejaVuSans-40"/>
      <use x="372.546875" xlink:href="#DejaVuSans-65"/>
      <use x="440.955078" xlink:href="#DejaVuSans-85"/>
      <use x="514.148438" xlink:href="#DejaVuSans-82"/>
      <use x="583.630859" xlink:href="#DejaVuSans-79"/>
      <use x="662.341797" xlink:href="#DejaVuSans-67"/>
      <use x="732.166016" xlink:href="#DejaVuSans-32"/>
      <use x="763.953125" xlink:href="#DejaVuSans-61"/>
      <use x="847.742188" xlink:href="#DejaVuSans-32"/>
      <use x="879.529297" xlink:href="#DejaVuSans-48"/>
      <use x="943.152344" xlink:href="#DejaVuSans-46"/>
      <use x="974.939453" xlink:href="#DejaVuSans-57"/>
      <use x="1038.5625" xlink:href="#DejaVuSans-55"/>
      <use x="1102.185547" xlink:href="#DejaVuSans-49"/>
      <use x="1165.808594" xlink:href="#DejaVuSans-50"/>
      <use x="1229.431641" xlink:href="#DejaVuSans-41"/>
     </g>
    </g>
    <g id="line2d_36">
     <path d="M 955.584375 622.375625 
L 995.584375 622.375625 
" style="fill:none;stroke:#e377c2;stroke-linecap:square;stroke-opacity:0.3;stroke-width:4;"/>
    </g>
    <g id="line2d_37"/>
    <g id="text_21">
     <!-- Fold 7 (AUROC = 0.9697) -->
     <g transform="translate(1011.584375 629.375625)scale(0.2 -0.2)">
      <use xlink:href="#DejaVuSans-70"/>
      <use x="53.894531" xlink:href="#DejaVuSans-111"/>
      <use x="115.076172" xlink:href="#DejaVuSans-108"/>
      <use x="142.859375" xlink:href="#DejaVuSans-100"/>
      <use x="206.335938" xlink:href="#DejaVuSans-32"/>
      <use x="238.123047" xlink:href="#DejaVuSans-55"/>
      <use x="301.746094" xlink:href="#DejaVuSans-32"/>
      <use x="333.533203" xlink:href="#DejaVuSans-40"/>
      <use x="372.546875" xlink:href="#DejaVuSans-65"/>
      <use x="440.955078" xlink:href="#DejaVuSans-85"/>
      <use x="514.148438" xlink:href="#DejaVuSans-82"/>
      <use x="583.630859" xlink:href="#DejaVuSans-79"/>
      <use x="662.341797" xlink:href="#DejaVuSans-67"/>
      <use x="732.166016" xlink:href="#DejaVuSans-32"/>
      <use x="763.953125" xlink:href="#DejaVuSans-61"/>
      <use x="847.742188" xlink:href="#DejaVuSans-32"/>
      <use x="879.529297" xlink:href="#DejaVuSans-48"/>
      <use x="943.152344" xlink:href="#DejaVuSans-46"/>
      <use x="974.939453" xlink:href="#DejaVuSans-57"/>
      <use x="1038.5625" xlink:href="#DejaVuSans-54"/>
      <use x="1102.185547" xlink:href="#DejaVuSans-57"/>
      <use x="1165.808594" xlink:href="#DejaVuSans-55"/>
      <use x="1229.431641" xlink:href="#DejaVuSans-41"/>
     </g>
    </g>
    <g id="line2d_38">
     <path d="M 955.584375 651.731875 
L 995.584375 651.731875 
" style="fill:none;stroke:#7f7f7f;stroke-linecap:square;stroke-opacity:0.3;stroke-width:4;"/>
    </g>
    <g id="line2d_39"/>
    <g id="text_22">
     <!-- Fold 8 (AUROC = 0.9664) -->
     <g transform="translate(1011.584375 658.731875)scale(0.2 -0.2)">
      <use xlink:href="#DejaVuSans-70"/>
      <use x="53.894531" xlink:href="#DejaVuSans-111"/>
      <use x="115.076172" xlink:href="#DejaVuSans-108"/>
      <use x="142.859375" xlink:href="#DejaVuSans-100"/>
      <use x="206.335938" xlink:href="#DejaVuSans-32"/>
      <use x="238.123047" xlink:href="#DejaVuSans-56"/>
      <use x="301.746094" xlink:href="#DejaVuSans-32"/>
      <use x="333.533203" xlink:href="#DejaVuSans-40"/>
      <use x="372.546875" xlink:href="#DejaVuSans-65"/>
      <use x="440.955078" xlink:href="#DejaVuSans-85"/>
      <use x="514.148438" xlink:href="#DejaVuSans-82"/>
      <use x="583.630859" xlink:href="#DejaVuSans-79"/>
      <use x="662.341797" xlink:href="#DejaVuSans-67"/>
      <use x="732.166016" xlink:href="#DejaVuSans-32"/>
      <use x="763.953125" xlink:href="#DejaVuSans-61"/>
      <use x="847.742188" xlink:href="#DejaVuSans-32"/>
      <use x="879.529297" xlink:href="#DejaVuSans-48"/>
      <use x="943.152344" xlink:href="#DejaVuSans-46"/>
      <use x="974.939453" xlink:href="#DejaVuSans-57"/>
      <use x="1038.5625" xlink:href="#DejaVuSans-54"/>
      <use x="1102.185547" xlink:href="#DejaVuSans-54"/>
      <use x="1165.808594" xlink:href="#DejaVuSans-52"/>
      <use x="1229.431641" xlink:href="#DejaVuSans-41"/>
     </g>
    </g>
    <g id="line2d_40">
     <path d="M 955.584375 681.088125 
L 995.584375 681.088125 
" style="fill:none;stroke:#bcbd22;stroke-linecap:square;stroke-opacity:0.3;stroke-width:4;"/>
    </g>
    <g id="line2d_41"/>
    <g id="text_23">
     <!-- Fold 9 (AUROC = 0.9451) -->
     <g transform="translate(1011.584375 688.088125)scale(0.2 -0.2)">
      <use xlink:href="#DejaVuSans-70"/>
      <use x="53.894531" xlink:href="#DejaVuSans-111"/>
      <use x="115.076172" xlink:href="#DejaVuSans-108"/>
      <use x="142.859375" xlink:href="#DejaVuSans-100"/>
      <use x="206.335938" xlink:href="#DejaVuSans-32"/>
      <use x="238.123047" xlink:href="#DejaVuSans-57"/>
      <use x="301.746094" xlink:href="#DejaVuSans-32"/>
      <use x="333.533203" xlink:href="#DejaVuSans-40"/>
      <use x="372.546875" xlink:href="#DejaVuSans-65"/>
      <use x="440.955078" xlink:href="#DejaVuSans-85"/>
      <use x="514.148438" xlink:href="#DejaVuSans-82"/>
      <use x="583.630859" xlink:href="#DejaVuSans-79"/>
      <use x="662.341797" xlink:href="#DejaVuSans-67"/>
      <use x="732.166016" xlink:href="#DejaVuSans-32"/>
      <use x="763.953125" xlink:href="#DejaVuSans-61"/>
      <use x="847.742188" xlink:href="#DejaVuSans-32"/>
      <use x="879.529297" xlink:href="#DejaVuSans-48"/>
      <use x="943.152344" xlink:href="#DejaVuSans-46"/>
      <use x="974.939453" xlink:href="#DejaVuSans-57"/>
      <use x="1038.5625" xlink:href="#DejaVuSans-52"/>
      <use x="1102.185547" xlink:href="#DejaVuSans-53"/>
      <use x="1165.808594" xlink:href="#DejaVuSans-49"/>
      <use x="1229.431641" xlink:href="#DejaVuSans-41"/>
     </g>
    </g>
    <g id="line2d_42">
     <path d="M 955.584375 710.444375 
L 995.584375 710.444375 
" style="fill:none;stroke:#17becf;stroke-linecap:square;stroke-opacity:0.3;stroke-width:4;"/>
    </g>
    <g id="line2d_43"/>
    <g id="text_24">
     <!-- Fold 10 (AUROC = 0.9618) -->
     <g transform="translate(1011.584375 717.444375)scale(0.2 -0.2)">
      <use xlink:href="#DejaVuSans-70"/>
      <use x="53.894531" xlink:href="#DejaVuSans-111"/>
      <use x="115.076172" xlink:href="#DejaVuSans-108"/>
      <use x="142.859375" xlink:href="#DejaVuSans-100"/>
      <use x="206.335938" xlink:href="#DejaVuSans-32"/>
      <use x="238.123047" xlink:href="#DejaVuSans-49"/>
      <use x="301.746094" xlink:href="#DejaVuSans-48"/>
      <use x="365.369141" xlink:href="#DejaVuSans-32"/>
      <use x="397.15625" xlink:href="#DejaVuSans-40"/>
      <use x="436.169922" xlink:href="#DejaVuSans-65"/>
      <use x="504.578125" xlink:href="#DejaVuSans-85"/>
      <use x="577.771484" xlink:href="#DejaVuSans-82"/>
      <use x="647.253906" xlink:href="#DejaVuSans-79"/>
      <use x="725.964844" xlink:href="#DejaVuSans-67"/>
      <use x="795.789062" xlink:href="#DejaVuSans-32"/>
      <use x="827.576172" xlink:href="#DejaVuSans-61"/>
      <use x="911.365234" xlink:href="#DejaVuSans-32"/>
      <use x="943.152344" xlink:href="#DejaVuSans-48"/>
      <use x="1006.775391" xlink:href="#DejaVuSans-46"/>
      <use x="1038.5625" xlink:href="#DejaVuSans-57"/>
      <use x="1102.185547" xlink:href="#DejaVuSans-54"/>
      <use x="1165.808594" xlink:href="#DejaVuSans-49"/>
      <use x="1229.431641" xlink:href="#DejaVuSans-56"/>
      <use x="1293.054688" xlink:href="#DejaVuSans-41"/>
     </g>
    </g>
    <g id="line2d_44">
     <path d="M 955.584375 739.800625 
L 995.584375 739.800625 
" style="fill:none;stroke:#000080;stroke-linecap:square;stroke-opacity:0.8;stroke-width:3;"/>
    </g>
    <g id="line2d_45"/>
    <g id="text_25">
     <!-- Mean AUC = 0.9572 -->
     <g transform="translate(1011.584375 746.800625)scale(0.2 -0.2)">
      <defs>
       <path d="M 9.8125 72.90625 
L 24.515625 72.90625 
L 43.109375 23.296875 
L 61.8125 72.90625 
L 76.515625 72.90625 
L 76.515625 0 
L 66.890625 0 
L 66.890625 64.015625 
L 48.09375 14.015625 
L 38.1875 14.015625 
L 19.390625 64.015625 
L 19.390625 0 
L 9.8125 0 
z
" id="DejaVuSans-77"/>
       <path d="M 54.890625 33.015625 
L 54.890625 0 
L 45.90625 0 
L 45.90625 32.71875 
Q 45.90625 40.484375 42.875 44.328125 
Q 39.84375 48.1875 33.796875 48.1875 
Q 26.515625 48.1875 22.3125 43.546875 
Q 18.109375 38.921875 18.109375 30.90625 
L 18.109375 0 
L 9.078125 0 
L 9.078125 54.6875 
L 18.109375 54.6875 
L 18.109375 46.1875 
Q 21.34375 51.125 25.703125 53.5625 
Q 30.078125 56 35.796875 56 
Q 45.21875 56 50.046875 50.171875 
Q 54.890625 44.34375 54.890625 33.015625 
z
" id="DejaVuSans-110"/>
      </defs>
      <use xlink:href="#DejaVuSans-77"/>
      <use x="86.279297" xlink:href="#DejaVuSans-101"/>
      <use x="147.802734" xlink:href="#DejaVuSans-97"/>
      <use x="209.082031" xlink:href="#DejaVuSans-110"/>
      <use x="272.460938" xlink:href="#DejaVuSans-32"/>
      <use x="304.248047" xlink:href="#DejaVuSans-65"/>
      <use x="372.65625" xlink:href="#DejaVuSans-85"/>
      <use x="445.849609" xlink:href="#DejaVuSans-67"/>
      <use x="515.673828" xlink:href="#DejaVuSans-32"/>
      <use x="547.460938" xlink:href="#DejaVuSans-61"/>
      <use x="631.25" xlink:href="#DejaVuSans-32"/>
      <use x="663.037109" xlink:href="#DejaVuSans-48"/>
      <use x="726.660156" xlink:href="#DejaVuSans-46"/>
      <use x="758.447266" xlink:href="#DejaVuSans-57"/>
      <use x="822.070312" xlink:href="#DejaVuSans-53"/>
      <use x="885.693359" xlink:href="#DejaVuSans-55"/>
      <use x="949.316406" xlink:href="#DejaVuSans-50"/>
     </g>
    </g>
   </g>
  </g>
 </g>
 <defs>
  <clipPath id="p3c91f71a92">
   <rect height="665.28" width="1116" x="180" y="103.68"/>
  </clipPath>
 </defs>
</svg>
